<svg id="Layer_1" data-name="Layer 1" xmlns="http://www.w3.org/2000/svg" viewBox="0 0 32.52 36.75"><defs><style>.cls-1{fill:#fff;stroke:#fff;stroke-miterlimit:10;stroke-width:0.5px;}</style></defs><title>isotipo-white</title><path class="cls-1" d="M61.57,3.23a12.2,12.2,0,0,0-2.17-.16c-6.58,0-17.07,7-12.75,11.35a0.7,0.7,0,0,0,.61.13,0.43,0.43,0,0,0,.33-0.48A12,12,0,0,1,59.4,3.94a16.47,16.47,0,0,1,1.95.14A0.45,0.45,0,0,0,61.57,3.23Z" transform="translate(-44.59 -0.61)"/><path class="cls-1" d="M71.62,24.48c-0.65,1.11-3,4.11-5,4.11-0.41,0-.31.72,0.08,1.23,1.63,1.75,4.06-2.54,5.4-4.49a0.21,0.21,0,0,1,.39.12,38,38,0,0,1-.19,8.43,1.93,1.93,0,0,1-2,2H46c-1,0-1,1.19,0,1.19H70.68A2.29,2.29,0,0,0,73.19,35a62.78,62.78,0,0,0,0-10.62C73.16,24,71.89,24,71.62,24.48Z" transform="translate(-44.59 -0.61)"/><path class="cls-1" d="M71.35,6.8A0.85,0.85,0,0,0,70.3,7.87a6.6,6.6,0,0,0,1.73,3,6.18,6.18,0,0,1,1,1.87c0.33,1.07.14,1.52,0.34,1.74a0.29,0.29,0,0,0,.47,0,1.44,1.44,0,0,0,.18-0.9,23.13,23.13,0,0,0-.61-3.62C73,8.4,72.34,7,71.35,6.8Z" transform="translate(-44.59 -0.61)"/><path class="cls-1" d="M56.43,29.42a5.36,5.36,0,0,1-2.68-.55,12.09,12.09,0,0,1-4.52-4.16,0.67,0.67,0,0,0-.66-0.39,0.35,0.35,0,0,0-.29.49c0.56,1.62,5.31,7,7.59,6.77C57.83,31.38,57.89,29.34,56.43,29.42Z" transform="translate(-44.59 -0.61)"/><path class="cls-1" d="M58.85,11.86a1.25,1.25,0,0,0-1.79,1.75A0.28,0.28,0,0,1,57,14a11.41,11.41,0,0,1-3.47,3.4,26.87,26.87,0,0,1-3.84,1.86A0.37,0.37,0,0,1,49.27,19,2.13,2.13,0,0,0,49,18.77a2.52,2.52,0,1,0,.79,1.69A0.29,0.29,0,0,1,50,20.08a28.36,28.36,0,0,0,4.08-2,12.26,12.26,0,0,0,3.84-3.84A0.55,0.55,0,0,1,58.3,14a1.22,1.22,0,0,0,.62-0.36A1.25,1.25,0,0,0,58.85,11.86Z" transform="translate(-44.59 -0.61)"/><path class="cls-1" d="M75.68,18a2.5,2.5,0,0,0-1.89-.31A0.89,0.89,0,0,1,73,17.23a36,36,0,0,1-3.24-4.49,41.28,41.28,0,0,1-3.89-9.2A0.56,0.56,0,0,1,66,3a1.25,1.25,0,1,0-1.58.07,0.84,0.84,0,0,1,.29.61c0,2.84-.22,8.48-1.29,11.92A9.34,9.34,0,0,1,60.58,20a1.54,1.54,0,0,1-.88.58,1.11,1.11,0,0,1-.7-0.14c-0.33-.21-0.74-0.45-1.23-0.74-1.58-.92-3.54-2.06-4.22-3.14A6.39,6.39,0,0,1,53.25,11a0.62,0.62,0,0,1,.46-0.29,1.18,1.18,0,0,0,.39-0.28,1.25,1.25,0,1,0-1.87,0l0.1,0.1a0.34,0.34,0,0,1,0,.37A6.91,6.91,0,0,0,52.8,17c0.79,1.26,2.86,2.46,4.52,3.43,0.42,0.24.89,0.52,1.27,0.76a0.13,0.13,0,0,1,0,.16,1.23,1.23,0,0,0,.29,1.39,1.25,1.25,0,0,0,1.77-.07,1.22,1.22,0,0,0,.15-1.45c-0.1-.17-0.05-0.27.33-0.61a9.86,9.86,0,0,0,3.11-4.75,42.28,42.28,0,0,0,1.26-9.67,0.14,0.14,0,0,1,.27,0,42.82,42.82,0,0,0,3.22,7,36.82,36.82,0,0,0,3.32,4.59,1,1,0,0,1,.12.73,2.47,2.47,0,0,0-.55,2.21,1.18,1.18,0,0,1-.61,1.21l-1.38.68A48.34,48.34,0,0,0,65.44,25a16.24,16.24,0,0,0-4.73,4.44c-0.06.09-.22,0.38-0.26,0.45a0.39,0.39,0,0,1-.12.14,0.48,0.48,0,0,1-.17.06,1.23,1.23,0,0,0-.72.38,1.25,1.25,0,1,0,1.87,0,0.29,0.29,0,0,1,0-.36,14.67,14.67,0,0,1,4.63-4.41,47.43,47.43,0,0,1,4.41-2.35c0.77-.38,1.43-0.71,2-1a1,1,0,0,1,.9,0A2.5,2.5,0,0,0,75.68,18Z" transform="translate(-44.59 -0.61)"/></svg>