<?xml version="1.0" encoding="utf-8"?>
<!-- Generator: Adobe Illustrator 19.2.1, SVG Export Plug-In . SVG Version: 6.00 Build 0)  -->
<svg version="1.1" id="Layer_1" xmlns="http://www.w3.org/2000/svg" xmlns:xlink="http://www.w3.org/1999/xlink" x="0px" y="0px"
	 viewBox="0 0 100 100" style="enable-background:new 0 0 100 100;" xml:space="preserve">
<style type="text/css">
	.st0{fill:#45666F;}
	.st1{fill:#222222;}
	.st2{fill:#DF8424;}
	.st3{fill:#304A51;}
	.st4{fill:#304A50;}
</style>
<path class="st0" d="M77.8,86.4C77.8,86.4,77.8,86.4,77.8,86.4L77.8,86.4L77.8,86.4z"/>
<polygon class="st0" points="69.7,59.8 69.7,59.8 61,55.7 "/>
<g>
	<path class="st1" d="M80.9,100H19.1C8.6,100,0,91.4,0,80.9V19.1C0,8.6,8.6,0,19.1,0h61.8C91.4,0,100,8.6,100,19.1v61.8
		C100,91.4,91.4,100,80.9,100z"/>
	<g>
		<path class="st2" d="M59.9,54.3c6.5-4.8,20.2-15.2,20.2-15.2s-17.2-0.1-25.3,0c-0.6,0-0.9-0.1-1.2-0.8c-2.1-6-8.9-24.4-8.9-24.4
			s-5.8,16.3-8.5,24.1c-0.2,0.7-0.5,1-1.3,1c-8.1,0-25.4,0.2-25.4,0.2s13.9,10.3,20.6,15.2c0.6,0.4,0.7,0.8,0.5,1.5
			c-1.9,6.3-7.5,24.9-7.5,24.9s14.4-10.2,21-14.9c0.6-0.4,1-0.4,1.6,0C52.1,70.7,67,81.5,67,81.5S61.9,64.1,59.4,56
			C59.1,55.2,59.3,54.8,59.9,54.3z"/>
		<path class="st3" d="M89.7,43.8c-2.2-1.2-4.4-2.3-6.6-3.5c-0.7-0.4-1.2-0.3-1.9,0.2C75.4,44.8,61,55.7,61,55.7l8.7,4.1
			c0,0,13.6-9.9,20.1-14.6C90.7,44.5,90.7,44.4,89.7,43.8z"/>
		<path class="st4" d="M51.2,71.7c-1.9-1.4-3.8-2.8-5.7-4.2c-0.5-0.4-0.9-0.4-1.4,0C42.4,68.9,29.8,77.8,25.3,81
			c-0.8,0.6-0.8,0.8,0,1.2c2.2,1.1,6.8,3.4,6.9,3.5c0.4,0.1,0.7,0,1.1-0.2c1.4-1,13.4-9.4,17.9-12.5C51.9,72.5,51.9,72.2,51.2,71.7z
			"/>
		<path class="st0" d="M61,55.7c0,0,4.9,16.1,7.2,24.2c0.4,1.5,1.2,2.4,2.7,3.1c2.3,1.2,4.4,2.3,6.8,3.3l-8-26.6l0,0l0,0L61,55.7z"
			/>
		<path class="st0" d="M55.5,37.9c1.8,0,3.6,0,5.4,0c0.9,0,1-0.1,0.6-1c-2.3-6.2-4.5-12.3-6.8-18.5c-0.2-0.5-0.5-0.8-0.9-1
			c-1.9-0.9-8.1-3.8-8.1-3.8s5.8,15.9,8.5,23.5C54.6,37.7,55,37.9,55.5,37.9z"/>
	</g>
</g>
<polygon class="st0" points="73.8,90.7 73.8,90.7 73.8,90.7 "/>
</svg>
