<?xml version="1.0" encoding="utf-8"?>
<!-- Generator: Adobe Illustrator 19.2.1, SVG Export Plug-In . SVG Version: 6.00 Build 0)  -->
<svg version="1.1" id="Layer_1" xmlns="http://www.w3.org/2000/svg" xmlns:xlink="http://www.w3.org/1999/xlink" x="0px" y="0px"
	 viewBox="0 0 50 50" style="enable-background:new 0 0 50 50;" xml:space="preserve">
<path d="M25,22.4c0,0.1-0.1,0.1-0.1,0.1c-3,3-6,6-9,9c-0.4,0.4-0.8,0.4-1.1,0c-0.4-0.4-0.7-0.7-1.1-1.1c-0.4-0.4-0.4-0.8,0-1.1
	c3.6-3.6,7.2-7.2,10.8-10.8c0.4-0.4,0.8-0.4,1.1,0c3.6,3.6,7.2,7.2,10.8,10.8c0.4,0.4,0.4,0.8,0,1.1c-0.4,0.4-0.7,0.7-1.1,1.1
	c-0.4,0.4-0.8,0.4-1.2,0c-3-3-6-6-9-9C25.1,22.5,25.1,22.4,25,22.4z"/>
</svg>
