<?xml version="1.0" encoding="utf-8"?>
<!-- Generator: Adobe Illustrator 21.1.0, SVG Export Plug-In . SVG Version: 6.00 Build 0)  -->
<svg version="1.1" id="bb1b87da-28c2-4695-89c3-ad15197eaea8"
	 xmlns="http://www.w3.org/2000/svg" xmlns:xlink="http://www.w3.org/1999/xlink" x="0px" y="0px" viewBox="0 0 329.6 365.9"
	 style="enable-background:new 0 0 329.6 365.9;" xml:space="preserve">
<style type="text/css">
	.st0{fill:#FFFFFF;}
</style>
<title>logo-white</title>
<path class="st0" d="M120.4,214.7c-2.3,0.1-4.6,0.3-6.8,0.4v27.4c-14.4,0.9-28.1,2.2-41,3.9v6.8c14.9-1.9,31-3.4,47.8-4.3V214.7z
	 M65.8,240.5c12.8-1.8,26.6-3.3,41-4.4v-20.5c-2.3,0.2-4.6,0.4-6.8,0.5v13.7l-6.8,0.6v-13.7c-2.3,0.2-4.6,0.4-6.8,0.7v13.7
	c-2.3,0.2-4.6,0.5-6.8,0.8v-13.7c-2.3,0.3-4.6,0.5-6.8,0.8v13.7l-6.8,0.9V220c-7.1,1-14,2.1-20.5,3.3v20.5c4.4-0.8,9-1.6,13.7-2.3
	v6.9c-4.7,0.7-9.3,1.5-13.7,2.3v6.8c6.5-1.2,13.4-2.3,20.5-3.3v-13.7H65.8z M59,234.7c-2.3,0.4-4.6,0.7-6.8,1.1V229
	c2.2-0.4,4.5-0.7,6.8-1.1V234.7z M106.8,195.1c0-33-0.1-45.6-0.1-77.6c-2.3,1.6-4.6,2.8-6.8,4.5c0,30.5,0.1,42.2,0.1,73.6
	C102.2,195.4,104.5,195.2,106.8,195.1z M120.4,201c0-37.8-0.1-53.5-0.1-90.1c-2.3,0.9-4.6,2-6.8,3.2c0,35.5,0.1,50.7,0.1,87.4
	c-22.8,1.4-45.6,4.2-68.1,8.2l-0.2,6.8c24.8-4.4,49.9-7.3,75.1-8.6L120.4,201z M270.7,227.8v6.8l-6.8-1v20.5c7.1,1,14,2.1,20.5,3.3
	c0.1-6.8-0.1-13.8-0.3-20.6l-6.5-1.1v-6.8l6.4,1.1c0.2-16.6-1-32.4-6.4-46.6v38.7c-2.2-0.4-6.8-1.1-6.8-1.1v-53
	c-3-4.9-4.4-7.4-7-11.3l0.1,70.2L270.7,227.8z M277.5,242.6v6.8c-2.2-0.4-4.5-0.7-6.8-1.1v-6.8C273,241.9,275.3,242.2,277.5,242.6z
	 M93.1,189.4c0-27.5-0.1-36.1-0.1-62.8c-2.4,2.1-4.6,3.7-6.8,6c0,24.7,0.1,32,0.1,57.5c-2.3,0.2-4.6,0.5-6.8,0.8
	c0-23.1-0.1-29.5-0.1-51.9c-2.4,2.9-4.7,4.9-6.8,8.1c0,19.7,0.1,24.3,0.1,44.6l-6.8,0.9c0-16.7-0.1-20.2-0.1-36.5
	c-2.5,3.8-4.8,7.7-6.7,11.8v11.9c-8,3.5-10,10.6-11.8,22.3c13.6-2.4,30-4.4,46-5.9v-6.8H93.1z M59,193.6c-1.3,0.2-3.6,0.4-5.2,0.7
	c0.3-3.3,3.1-6.2,5.2-7.5V193.6z M216,242.5v-27.4c-6.7-0.4-13.5-0.8-20.5-1.1v6.8l13.7,0.6v6.8c-4.5-0.3-9.1-0.5-13.7-0.6v20.5
	c16.1,0.6,31.9,1.7,47.8,3.4l-0.1-118.8c-2.2-2.2-4.5-3.9-6.8-6l0.1,117.3C229.9,243.5,223,243,216,242.5z M209.2,242.1
	c-2.3-0.1-4.5-0.2-6.8-0.4v-6.8c2.3,0.1,4.6,0.2,6.8,0.4V242.1z M229.7,236.7l-0.1-114.5c-2.2-1.6-4.5-3.1-6.8-4.5l0.1,118.4
	L229.7,236.7z M202.4,180.1v6.8l-6.8-0.3v20.5c7,0.3,13.8,0.6,20.5,1.1v-20.5l-6.8-0.4v-6.8l6.8,0.4l-0.1-66.6
	c-2.1-1.4-4.4-2.4-6.8-3.2c0,7.5,0.1,62.5,0.1,62.5l-6.8-0.4l-0.1-64.7c-2.2-0.9-4.5-1.6-6.8-2.2l0.1,73.5L202.4,180.1z
	 M209.2,194.2v6.8c-2.3-0.1-4.5-0.2-6.8-0.4v-6.8C204.7,193.9,206.9,194,209.2,194.2L209.2,194.2z M188.7,248.1l-0.1-153.4
	c-2.4-4.5-6.8-11.5-6.8-11.5l0.1,164.7C184.2,247.9,186.4,248,188.7,248.1L188.7,248.1z M175.1,247.8v-20.5
	c-4.6-0.1-9.1-0.1-13.7-0.1v-6.8c4.6,0,9.1,0,13.7,0.1V200c-6.8-0.1-13.7-0.1-20.5,0v34.2c4.6-0.1,9.1-0.1,13.7-0.1v6.8
	c-6.8,0-13.7,0-20.5,0.2v-13.7c-4.6,0.1-9.2,0.2-13.7,0.4V221c4.5-0.2,9.1-0.3,13.7-0.4V200c-2.3,0-4.6,0.1-6.8,0.2v13.7
	c-2.3,0.1-4.6,0.1-6.8,0.2v-13.7l-6.8,0.3v47.9C143.2,247.8,159.1,247.6,175.1,247.8L175.1,247.8z M161.4,206.6h6.8v6.8h-6.8V206.6z
	 M140.9,241.2c-2.3,0.1-4.6,0.1-6.8,0.2v-6.8c2.3-0.1,4.5-0.2,6.8-0.2V241.2z M175.1,193v-6.8c0-73.9-0.1-107.4-0.1-179L168.1,0
	c0,71.6,0.1,112.2,0.1,186.1h-6.8c0-73.9-0.1-114.5-0.1-186.1l-6.8,7.1c0,71.7,0.1,105.1,0.1,179c-2.3,0-4.6,0.1-6.8,0.1
	c0-68.7-0.1-103.3-0.1-103.3l-6.8,12.2l0.1,9.4c0,0-11.2,2.6-13.7,3.6v85.6C143.2,193.1,159.1,192.8,175.1,193z M140.9,186.4
	c-2.3,0.1-4.6,0.1-6.8,0.2v-73.1l6.8-1.7V186.4z M257,253.3l-0.1-106c-2.1-3.1-4.4-5.2-6.8-8.1l0.1,113.3
	C252.5,252.7,254.7,253,257,253.3L257,253.3z M59.5,364.2l-0.9,0.1h-0.1c-0.1,0-0.1,0-0.1-0.1v-7.5c0-0.1,0.1-0.2,0.2-0.2l0.5-0.1
	c0.2,0,0.2-0.1,0.3-0.3l0.1-0.3v-0.1c0-0.1-0.1-0.2-0.3-0.2h-2.3c-1.1,0-1.1,0.3-1.7,1.7l-2.8,6.4l-2.8-6.7
	c-0.5-1.2-0.5-1.4-1.3-1.4h-2.5c-0.5,0-0.6,0-0.6,0.4l-0.1,0.8v0.1c0,0.1,0.1,0.1,0.2,0.1l0.9-0.1h-0.1c0.1,0,0.1,0.1,0.1,0.2v7.3
	c0,0.1-0.2,0.2-0.4,0.2h-0.4c-0.3,0-0.4,0.1-0.4,0.4l-0.1,0.5v0.1c0,0.1,0,0.1,0.2,0.1h2.8c0.5,0,0.6,0,0.7-0.4l0.1-0.9
	c0-0.1,0-0.1-0.1-0.1l-0.8,0.1h-0.1c-0.1,0-0.1-0.1-0.1-0.2v-6.4l3.2,7.5c0.1,0.3,0.2,0.4,0.4,0.4h1.4c0.3,0,0.4-0.1,0.5-0.4
	l3.3-7.5v6.7c0,0.2-0.1,0.2-0.4,0.2h-0.3c-0.4,0-0.4,0.1-0.4,0.4l-0.1,0.4v0.1c0,0.1,0.1,0.1,0.2,0.1H59c0.5,0,0.6,0,0.7-0.4
	l0.1-0.8C59.7,364.3,59.6,364.2,59.5,364.2z M70.6,355.5h-2.8c-0.5,0-0.6,0-0.7,0.4l-0.1,0.8v0.1c0,0.1,0.1,0.1,0.2,0.1l0.9-0.1l0,0
	c0.1,0,0.1,0,0.1,0.1v5.3c0,0.8-0.4,1.7-1.1,2.1c-0.4,0.1-0.7,0.2-1.1,0.2c-1.3,0.1-2.4-0.9-2.4-2.2c0-0.1,0-0.3,0-0.4v-5.2
	c0-0.1,0.1-0.2,0.4-0.2h0.4c0.3,0,0.4-0.1,0.4-0.4l0.1-0.4v-0.1c0-0.1-0.1-0.1-0.2-0.1h-3.9c-0.5,0-0.6,0-0.7,0.4l-0.1,0.8v0.1
	c0,0.1,0.1,0.1,0.2,0.1l0.9-0.1h0.1c0.1,0,0.1,0.1,0.1,0.2v4.9l0,0c0,3.3,2.3,3.9,4.4,3.9c2.4,0,3.9-1.4,3.9-3.6v-5.5
	c0-0.1,0.1-0.2,0.4-0.2h0.4c0.3,0,0.4-0.1,0.4-0.4l0.1-0.4v-0.1C70.8,355.5,70.7,355.5,70.6,355.5z M81.6,364.2l-0.9,0.1h-0.1
	c-0.1,0-0.1-0.1-0.1-0.2v-7.4c0-0.1,0.1-0.1,0.4-0.2h0.3c0.3,0,0.4-0.1,0.4-0.4l0.1-0.4c0-0.1,0-0.1-0.2-0.1H78
	c-0.5,0-0.6,0-0.6,0.4l-0.1,0.8v0.1c0,0.1,0,0.1,0.1,0.1c0,0,0,0,0,0l0.8-0.1h0.1c0.1,0,0.1,0,0.1,0.1v2.8l-3.7,0.1v-3.2
	c0-0.1,0.1-0.1,0.4-0.2h0.3c0.3,0,0.4-0.1,0.4-0.4v-0.5c0-0.1,0-0.1-0.2-0.1h-3.5c-0.5,0-0.6,0-0.6,0.4l-0.1,0.8v0.1
	c0,0.1,0,0.1,0.1,0.1c0,0,0,0,0,0l0.8-0.1h0.1c0.1,0,0.1,0.1,0.1,0.2v7.4c0,0.1-0.2,0.2-0.4,0.2h-0.4c-0.4,0-0.4,0.1-0.4,0.4
	l-0.1,0.4v0.1c0,0.1,0,0.1,0.2,0.1h3.7c0.5,0,0.6,0,0.7-0.4l0.1-0.8c0-0.1,0-0.1-0.1-0.1l-0.9,0.1h-0.1c-0.1,0-0.1-0.1-0.1-0.2v-3
	l3.7,0.2v3c0,0.2-0.1,0.2-0.4,0.2h-0.4c-0.4,0-0.4,0.1-0.4,0.4l-0.1,0.4v0.1c0,0.1,0,0.1,0.2,0.1H81c0.5,0,0.6,0,0.7-0.4l0.1-0.8
	C81.7,364.3,81.7,364.2,81.6,364.2z M93.1,364.2l-0.6,0.1c-0.3,0-0.4-0.1-0.5-0.4l-3.1-8c-0.1-0.3-0.2-0.4-0.4-0.4H86
	c-0.5,0-0.6,0-0.7,0.4l-0.1,0.8v0.1c0,0.1,0.1,0.1,0.2,0.1l0.7-0.1l0,0c0.1,0,0.1,0,0.1,0.1v0.1l-0.1,0.2l0,0l-2.5,6.8
	c-0.2,0.5-0.3,0.5-0.6,0.6l-0.5,0.1c-0.1,0-0.2,0-0.3,0.3l-0.1,0.4v0.1c0,0.1,0.1,0.2,0.3,0.2h3.1c0.2,0,0.4,0,0.4-0.3l0.1-0.9
	c0-0.1-0.1-0.1-0.2-0.1l-0.6,0.1h-0.1c-0.2,0-0.2-0.1-0.2-0.2c0-0.1,0-0.2,0.1-0.3l0.5-1.3H89l0.7,1.7v0.2c0,0.1-0.1,0.1-0.3,0.2
	l-0.6,0.1c-0.1,0-0.2,0.1-0.2,0.2l-0.1,0.3v0.3c0,0.1,0.1,0.2,0.3,0.2h4c0.3,0,0.4-0.1,0.4-0.3l0.2-1
	C93.3,364.2,93.2,364.2,93.1,364.2z M85.9,361.3l1.3-3.6l1.4,3.6H85.9z M108.3,364.2l-0.9,0.1h-0.1c-0.1,0-0.1,0-0.1-0.1v-7.5
	c0-0.1,0.1-0.2,0.2-0.2l0.5-0.1c0.2,0,0.2-0.1,0.3-0.3l0.1-0.3v-0.1c0-0.1-0.1-0.2-0.3-0.2h-2.3c-1.1,0-1.1,0.3-1.7,1.7l-2.8,6.4
	l-2.8-6.7c-0.5-1.2-0.5-1.4-1.3-1.4h-2.5c-0.5,0-0.6,0-0.6,0.4l-0.1,0.8v0.1c0,0.1,0.1,0.1,0.2,0.1l0.9-0.1h0.1
	c0.1,0,0.1,0.1,0.1,0.2v7.3c0,0.1-0.2,0.2-0.4,0.2h-0.4c-0.3,0-0.4,0.1-0.4,0.4l-0.1,0.5v0.1c0,0.1,0,0.1,0.2,0.1h2.8
	c0.5,0,0.6,0,0.7-0.4l0.1-0.9c0-0.1,0-0.1-0.1-0.1l-0.8,0.1h-0.1c-0.1,0-0.1-0.1-0.1-0.2v-6.4l3.2,7.5c0.1,0.3,0.2,0.4,0.4,0.4h1.4
	c0.3,0,0.4-0.1,0.5-0.4l3.3-7.5v6.7c0,0.2-0.1,0.2-0.4,0.2h-0.3c-0.4,0-0.4,0.1-0.4,0.4l-0.1,0.4v0.1c0,0.1,0.1,0.1,0.2,0.1h3.6
	c0.5,0,0.6,0,0.7-0.4l0.1-0.8C108.4,364.3,108.4,364.2,108.3,364.2z M123.5,364.2l-0.9,0.1h-0.1c-0.1,0-0.1,0-0.1-0.1v-7.5
	c0-0.1,0.1-0.2,0.2-0.2l0.5-0.1c0.2,0,0.2-0.1,0.3-0.3l0.1-0.3v-0.1c0-0.1-0.1-0.2-0.3-0.2h-2.3c-1.1,0-1.1,0.3-1.7,1.7l-2.8,6.4
	l-2.8-6.7c-0.5-1.2-0.5-1.4-1.3-1.4h-2.5c-0.5,0-0.6,0-0.6,0.4l-0.1,0.8v0.1c0,0.1,0.1,0.1,0.2,0.1l0.9-0.1h0.1
	c0.1,0,0.1,0.1,0.1,0.2v7.3c0,0.1-0.2,0.2-0.4,0.2h-0.4c-0.3,0-0.4,0.1-0.4,0.4l-0.1,0.5v0.1c0,0.1,0,0.1,0.2,0.1h2.8
	c0.5,0,0.6,0,0.7-0.4l0.1-0.9c0-0.1,0-0.1-0.1-0.1l-0.8,0.1h-0.1c-0.1,0-0.1-0.1-0.1-0.2v-6.4l3.2,7.5c0.1,0.3,0.2,0.4,0.4,0.4h1.4
	c0.3,0,0.4-0.1,0.5-0.4l3.3-7.5v6.7c0,0.2-0.1,0.2-0.4,0.2h-0.3c-0.4,0-0.4,0.1-0.4,0.4l-0.1,0.4v0.1c0,0.1,0.1,0.1,0.2,0.1h3.6
	c0.5,0,0.6,0,0.7-0.4l0.1-0.8C123.7,364.3,123.6,364.2,123.5,364.2z M135,364.2l-0.6,0.1c-0.3,0-0.4-0.1-0.5-0.4l-3.1-8
	c-0.1-0.3-0.2-0.4-0.4-0.4h-2.5c-0.5,0-0.6,0-0.7,0.4l-0.1,0.8v0.1c0,0.1,0.1,0.1,0.2,0.1l0.7-0.1h0.1c0.1,0,0.1,0,0.1,0.1v0.1
	l-0.1,0.2l0,0l-2.5,6.8c-0.2,0.5-0.3,0.5-0.6,0.6l-0.5,0.1c-0.1,0-0.2,0-0.3,0.3l-0.1,0.4v0.1c0,0.1,0.1,0.2,0.3,0.2h3.1
	c0.2,0,0.4,0,0.4-0.3l0.1-0.9c0-0.1-0.1-0.1-0.2-0.1l-0.6,0.1h-0.1c-0.2,0-0.2-0.1-0.2-0.2c0-0.1,0-0.2,0.1-0.3l0.5-1.3h3.5l0.7,1.7
	v0.2c0,0.1-0.1,0.1-0.3,0.2l-0.6,0.1c-0.1,0-0.2,0.1-0.2,0.2l-0.1,0.3v0.3c0,0.1,0.1,0.2,0.3,0.2h4c0.3,0,0.4-0.1,0.4-0.3l0.2-1
	C135.2,364.2,135.2,364.2,135,364.2z M127.8,361.3l1.3-3.6l1.4,3.6H127.8z M140.8,355.3c-1.2,0-3.4,0.1-4.2,0.1
	c-0.4,0-0.6,0.1-0.7,0.4l-0.1,0.8v0.1c0,0.1,0.1,0.1,0.2,0.1l0.7-0.1h0.1c0.1,0,0.1,0,0.1,0.1v7.5c0,0.1-0.1,0.2-0.4,0.2h-0.4
	c-0.3,0.1-0.4,0.1-0.4,0.4l-0.1,0.4v0.1c0,0.1,0,0.1,0.2,0.1c1.6,0,3.1,0.1,4.6,0.1c3.2,0,5.4-1.6,5.4-5.3
	C145.8,356.2,143.2,355.3,140.8,355.3L140.8,355.3z M142.2,364.2c-0.6,0.3-1.2,0.4-1.8,0.4c-1.2,0-1.3-0.2-1.3-0.4V357
	c0-0.1,0.1-0.3,0.2-0.3c0,0,0,0,0.1,0l1.1-0.1c1.5,0,2.8,1.1,2.8,3.8C143.4,361.8,143,363.1,142.2,364.2L142.2,364.2z M154.4,364.2
	l-0.9,0.1h-0.1c-0.1,0-0.1,0-0.1-0.1v-7.5c0-0.1,0.1-0.1,0.4-0.2h0.3c0.3,0,0.4-0.1,0.4-0.4l0.1-0.4c0-0.1,0-0.1-0.2-0.1h-3.5
	c-0.5,0-0.6,0-0.6,0.4l-0.1,0.8v0.1c0,0.1,0,0.1,0.1,0.1h0l0.8-0.1h0.1c0.1,0,0.1,0.1,0.1,0.2v7.4c0,0.1-0.2,0.2-0.4,0.2h-0.4
	c-0.4,0-0.4,0.1-0.4,0.4l-0.1,0.4v0.1c0,0.1,0,0.1,0.2,0.1h3.7c0.5,0,0.6,0,0.7-0.4l0.1-0.8C154.6,364.3,154.5,364.2,154.4,364.2
	L154.4,364.2z M160,359.5c-1.2-0.1-2.6,0-2.6-1.4c0-0.4,0.1-0.8,0.4-1.1c0.6-0.1,1.3-0.2,1.9-0.2c0.6,0,1.3,0.1,1.9,0.2h0.2
	c0.1,0,0.2-0.1,0.2-0.3l0.2-0.8v-0.2c0-0.1-0.1-0.1-0.3-0.2c-0.8-0.1-1.5-0.2-2.3-0.2c-2.8,0-4.4,0.4-4.4,2.8c0,2.7,1.5,3,2.9,3.2
	s2.5,0,2.5,1.4c0,0.4-0.1,0.8-0.3,1.2c-0.6,0.3-1.2,0.4-1.8,0.4c-0.8,0-1.7-0.1-2.5-0.3c-0.2-0.1-0.4-0.1-0.6-0.1
	c-0.2,0-0.2,0-0.2,0.2v0.1l0.1,0.9c0,0.2,0.1,0.3,0.4,0.4c0.9,0.2,1.9,0.3,2.9,0.3c2.4,0,4.1-0.7,4.1-3.2S161.4,359.6,160,359.5z
	 M177.2,364.2l-0.9,0.1h-0.1c-0.1,0-0.1-0.1-0.1-0.2v-7.4c0-0.1,0.1-0.1,0.4-0.2h0.3c0.3,0,0.4-0.1,0.4-0.4l0.1-0.4
	c0-0.1,0-0.1-0.2-0.1h-3.5c-0.5,0-0.6,0-0.6,0.4l-0.1,0.8v0.1c0,0.1,0,0.1,0.1,0.1h0l0.8-0.1h0.1c0.1,0,0.1,0,0.1,0.1v2.8l-3.7,0.1
	v-3.2c0-0.1,0.1-0.1,0.4-0.2h0.3c0.3,0,0.4-0.1,0.4-0.4v-0.5c0-0.1,0-0.1-0.2-0.1h-3.5c-0.5,0-0.6,0-0.6,0.4l-0.1,0.8v0.1
	c0,0.1,0,0.1,0.1,0.1h0l0.8-0.1h0.1c0.1,0,0.1,0.1,0.1,0.2v7.4c0,0.1-0.2,0.2-0.4,0.2h-0.4c-0.4,0-0.4,0.1-0.4,0.4l-0.1,0.4v0.1
	c0,0.1,0,0.1,0.2,0.1h3.7c0.5,0,0.6,0,0.7-0.4l0.1-0.8c0-0.1,0-0.1-0.1-0.1l-0.9,0.1h-0.1c-0.1,0-0.1-0.1-0.1-0.2v-3l3.7,0.2v3
	c0,0.2-0.1,0.2-0.4,0.2h-0.4c-0.4,0-0.4,0.1-0.4,0.4l-0.1,0.4v0.1c0,0.1,0,0.1,0.2,0.1h3.7c0.5,0,0.6,0,0.7-0.4l0.1-0.8
	C177.4,364.3,177.3,364.2,177.2,364.2L177.2,364.2z M182.4,364.2l-0.9,0.1h-0.1c-0.1,0-0.1,0-0.1-0.1v-7.5c0-0.1,0.1-0.1,0.4-0.2
	h0.3c0.3,0,0.4-0.1,0.4-0.4l0.1-0.4c0-0.1,0-0.1-0.2-0.1h-3.5c-0.5,0-0.6,0-0.6,0.4l-0.1,0.8v0.1c0,0.1,0,0.1,0.1,0.1h0l0.8-0.1h0.1
	c0.1,0,0.1,0.1,0.1,0.2v7.4c0,0.1-0.2,0.2-0.4,0.2h-0.4c-0.4,0-0.4,0.1-0.4,0.4l-0.1,0.4v0.1c0,0.1,0,0.1,0.2,0.1h3.7
	c0.5,0,0.6,0,0.7-0.4l0.1-0.8C182.5,364.3,182.5,364.2,182.4,364.2L182.4,364.2z M188,359.5c-1.2-0.1-2.6,0-2.6-1.4
	c0-0.4,0.1-0.8,0.4-1.1c0.6-0.1,1.3-0.2,1.9-0.2c0.6,0,1.3,0.1,1.9,0.2h0.2c0.1,0,0.2-0.1,0.2-0.3l0.2-0.8v-0.2
	c0-0.1-0.1-0.1-0.3-0.2c-0.8-0.1-1.5-0.2-2.3-0.2c-2.8,0-4.4,0.4-4.4,2.8c0,2.7,1.5,3,2.9,3.2s2.5,0,2.5,1.4c0,0.4-0.1,0.8-0.3,1.2
	c-0.6,0.3-1.2,0.4-1.8,0.4c-0.8,0-1.7-0.1-2.5-0.3c-0.2-0.1-0.4-0.1-0.6-0.1c-0.2,0-0.2,0-0.2,0.2v0.1l0.1,0.9
	c0,0.2,0.1,0.3,0.4,0.4c0.9,0.2,1.9,0.3,2.9,0.3c2.4,0,4.1-0.7,4.1-3.2S189.4,359.6,188,359.5z M209.4,364.2l-0.9,0.1h-0.1
	c-0.1,0-0.1,0-0.1-0.1v-7.5c0-0.1,0.1-0.2,0.2-0.2l0.5-0.1c0.2,0,0.2-0.1,0.3-0.3l0.1-0.3v-0.1c0-0.1-0.1-0.2-0.3-0.2h-2.3
	c-1.1,0-1.1,0.3-1.7,1.7l-2.8,6.4l-2.8-6.7c-0.5-1.2-0.5-1.4-1.3-1.4h-2.5c-0.5,0-0.6,0-0.6,0.4l-0.1,0.8v0.1c0,0.1,0.1,0.1,0.2,0.1
	l0.9-0.1h0.1c0.1,0,0.1,0.1,0.1,0.2v7.3c0,0.1-0.2,0.2-0.4,0.2h-0.4c-0.3,0-0.4,0.1-0.4,0.4l-0.1,0.5v0.1c0,0.1,0,0.1,0.2,0.1h2.8
	c0.5,0,0.6,0,0.7-0.4l0.1-0.9c0-0.1,0-0.1-0.1-0.1l-0.8,0.1h-0.1c-0.1,0-0.1-0.1-0.1-0.2v-6.4l3.2,7.5c0.1,0.3,0.2,0.4,0.4,0.4h1.4
	c0.3,0,0.4-0.1,0.5-0.4l3.3-7.5v6.7c0,0.2-0.1,0.2-0.4,0.2h-0.3c-0.4,0-0.4,0.1-0.4,0.4l-0.1,0.4v0.1c0,0.1,0.1,0.1,0.2,0.1h3.6
	c0.5,0,0.6,0,0.7-0.4l0.1-0.8C209.5,364.3,209.5,364.2,209.4,364.2L209.4,364.2z M218.4,362.8l-1.2-0.1h-0.1c-0.1,0-0.1,0-0.1,0.2
	l-0.3,1.3c0,0.1,0,0.1-0.2,0.1l-2.9,0.2c-0.1,0-0.2-0.1-0.2-0.2V361l2.6,0.3c0.1,0,0.2,0,0.2-0.1l0.2-1.3c0-0.1-0.1-0.2-0.2-0.2
	l-2.8,0.1V357c0-0.2,0.1-0.3,0.2-0.3h2.8c0.1,0,0.1,0,0.1,0.1v0.1l-0.3,1v0.1c0,0.1,0,0.1,0.2,0.1l1,0.1h0.1c0.2,0,0.3-0.1,0.3-0.4
	l0.4-2v-0.1c0-0.3-0.3-0.3-0.4-0.3h-7.3c-0.3,0-0.4,0.1-0.4,0.3l-0.1,0.9v0.1c0,0.1,0.1,0.1,0.2,0.1l0.8-0.1c0.1,0,0.1,0,0.1,0.1
	v7.5c0,0.2-0.1,0.2-0.4,0.2h-0.4c-0.3,0.1-0.3,0.1-0.4,0.4l-0.1,0.4v0.1c0,0.1,0.1,0.1,0.2,0.1h7.4c0.2,0,0.4-0.1,0.4-0.3l0.4-2.1
	v-0.2C218.6,362.8,218.5,362.8,218.4,362.8L218.4,362.8z M224,359.5c-1.2-0.1-2.6,0-2.6-1.4c0-0.4,0.1-0.8,0.4-1.1
	c0.6-0.1,1.3-0.2,1.9-0.2c0.6,0,1.3,0.1,1.9,0.2h0.2c0.1,0,0.2-0.1,0.2-0.3l0.2-0.8v-0.2c0-0.1-0.1-0.1-0.3-0.2
	c-0.8-0.1-1.5-0.2-2.3-0.2c-2.8,0-4.4,0.4-4.4,2.8c0,2.7,1.5,3,2.9,3.2s2.5,0,2.5,1.4c0,0.4-0.1,0.8-0.3,1.2
	c-0.6,0.3-1.2,0.4-1.8,0.4c-0.8,0-1.7-0.1-2.5-0.3c-0.2-0.1-0.4-0.1-0.6-0.1c-0.2,0-0.2,0-0.2,0.2v0.1l0.1,0.9
	c0,0.2,0.1,0.3,0.4,0.4c0.9,0.2,1.9,0.3,2.9,0.3c2.4,0,4.1-0.7,4.1-3.2S225.4,359.6,224,359.5L224,359.5z M232.3,359.5
	c-1.2-0.1-2.6,0-2.6-1.4c0-0.4,0.1-0.8,0.4-1.1c0.6-0.1,1.3-0.2,1.9-0.2c0.6,0,1.3,0.1,1.9,0.2h0.2c0.1,0,0.2-0.1,0.2-0.3l0.2-0.8
	v-0.2c0-0.1-0.1-0.1-0.3-0.2c-0.8-0.1-1.5-0.2-2.3-0.2c-2.8,0-4.4,0.4-4.4,2.8c0,2.7,1.5,3,2.9,3.2s2.5,0,2.5,1.4
	c0,0.4-0.1,0.8-0.3,1.2c-0.6,0.3-1.2,0.4-1.8,0.4c-0.8,0-1.7-0.1-2.5-0.3c-0.2-0.1-0.4-0.1-0.6-0.1c-0.2,0-0.2,0-0.2,0.2v0.1
	l0.1,0.9c0,0.2,0.1,0.3,0.4,0.4c0.9,0.2,1.9,0.3,2.9,0.3c2.4,0,4.1-0.7,4.1-3.2C235.2,360.2,233.7,359.6,232.3,359.5L232.3,359.5z
	 M244.1,362.8l-1.2-0.1h-0.1c-0.1,0-0.1,0-0.1,0.2l-0.3,1.3c0,0.1,0,0.1-0.2,0.1l-2.9,0.2c-0.1,0-0.2-0.1-0.2-0.2V361l2.6,0.3
	c0.1,0,0.2,0,0.2-0.1l0.2-1.3c0-0.1-0.1-0.2-0.2-0.2l-2.8,0.1V357c0-0.2,0.1-0.3,0.2-0.3h2.8c0.1,0,0.1,0,0.1,0.1v0.1l-0.3,1v0.1
	c0,0.1,0,0.1,0.2,0.1l1,0.1h0.1c0.2,0,0.3-0.1,0.3-0.4l0.4-2v-0.1c0-0.3-0.3-0.3-0.4-0.3h-7.3c-0.3,0-0.4,0.1-0.4,0.3l-0.1,0.9v0.1
	c0,0.1,0.1,0.1,0.2,0.1l0.8-0.1c0.1,0,0.1,0,0.1,0.1v7.5c0,0.2-0.1,0.2-0.4,0.2H236c-0.3,0.1-0.3,0.1-0.4,0.4l-0.1,0.4v0.1
	c0,0.1,0.1,0.1,0.2,0.1h7.4c0.2,0,0.4-0.1,0.4-0.3l0.4-2.1v-0.2C244.3,362.8,244.2,362.8,244.1,362.8L244.1,362.8z M255.3,355.5
	h-2.8c-0.5,0-0.6,0-0.6,0.4l-0.1,0.8v0.1c0,0.1,0,0.1,0.1,0.1h0l0.9-0.1h0.1c0.1,0,0.1,0.1,0.1,0.2v5.2l-5.1-6.2
	c-0.1-0.2-0.4-0.4-0.7-0.4h-1.5c-0.5,0-0.6,0-0.6,0.4l-0.1,0.8v0.1c0,0.1,0.1,0.1,0.2,0.1l0.9-0.1h0.1c0.1,0,0.1,0.1,0.1,0.2v7.3
	c0,0.2-0.1,0.2-0.4,0.2h-0.4c-0.3,0-0.4,0.1-0.4,0.4l-0.1,0.5v0.1c0,0.1,0,0.1,0.2,0.1h2.8c0.5,0,0.6,0,0.7-0.4l0.1-0.9
	c0-0.1,0-0.1-0.1-0.1l-0.8,0.1h-0.1c-0.1,0-0.1,0-0.1-0.1V359l5.3,6.5c0.1,0.2,0.3,0.2,0.5,0.2h0.9c0.1,0,0.2,0,0.2-0.1v-8.7
	c0-0.1,0.1-0.2,0.4-0.2h0.4c0.3,0,0.4-0.1,0.4-0.4l0.1-0.5v-0.1C255.5,355.5,255.4,355.5,255.3,355.5L255.3,355.5z M265,360.2h-2.3
	c-0.5,0-0.6,0-0.7,0.4l-0.1,0.8v0.1c0,0.1,0.1,0.1,0.2,0.1l0.7-0.1c0.2,0,0.2,0,0.2,0.2v2.3c0,0.2,0,0.2-0.2,0.2
	c-0.4,0.1-0.8,0.1-1.2,0.1c-0.7,0-2.7-0.1-2.7-3.7c-0.1-1.3,0.3-2.5,1.1-3.5c0.8-0.2,1.6-0.3,2.4-0.3c0.7,0,1.4,0.1,2.1,0.2h0.2
	c0.1,0,0.2,0,0.2-0.2l0.2-0.9v-0.1c0-0.1-0.1-0.2-0.2-0.2c-1-0.2-2-0.3-3-0.3c-3.5,0-5.6,1.2-5.6,5.2c0,4.7,3.3,5.2,5.2,5.2
	c1.2,0,2.4-0.2,3.5-0.5c0.2-0.1,0.2-0.1,0.2-0.3v-4.5C265.2,360.2,265.2,360.2,265,360.2L265,360.2z M274.9,362.8l-1.2-0.1h-0.1
	c-0.1,0-0.1,0-0.1,0.2l-0.3,1.3c0,0.1,0,0.1-0.2,0.1l-2.9,0.2c-0.1,0-0.2-0.1-0.2-0.2V361l2.6,0.3c0.1,0,0.2,0,0.2-0.1l0.2-1.3
	c0-0.1-0.1-0.2-0.2-0.2l-2.8,0.1V357c0-0.2,0.1-0.3,0.2-0.3h2.8c0.1,0,0.1,0,0.1,0.1v0.1l-0.3,1v0.1c0,0.1,0,0.1,0.2,0.1l1,0.1h0.1
	c0.2,0,0.3-0.1,0.3-0.4l0.4-2v-0.1c0-0.3-0.3-0.3-0.4-0.3H267c-0.3,0-0.4,0.1-0.4,0.3l-0.1,0.9v0.1c0,0.1,0.1,0.1,0.2,0.1l0.8-0.1
	c0.1,0,0.1,0,0.1,0.1v7.5c0,0.2-0.1,0.2-0.4,0.2h-0.4c-0.3,0.1-0.3,0.1-0.4,0.4l-0.1,0.4v0.1c0,0.1,0.1,0.1,0.2,0.1h7.4
	c0.2,0,0.4-0.1,0.4-0.3l0.4-2.1v-0.2C275.1,362.8,275,362.8,274.9,362.8L274.9,362.8z M285.2,364.2l-0.7,0.1h-0.1
	c-0.2,0-0.4-0.2-0.7-0.6l-1.2-2.2c1.4-0.3,2.3-1.6,2.2-3c0-1.7-1.3-3-4.4-3h-3.8c-0.5,0-0.6,0-0.7,0.4l-0.1,0.8v0.1
	c0,0.1,0.1,0.1,0.2,0.1l0.9-0.1h0.1c0.1,0,0.1,0,0.1,0.1v7.5c0,0.2-0.1,0.2-0.4,0.2h-0.4c-0.4,0-0.4,0.1-0.4,0.4l-0.1,0.4v0.1
	c0,0.1,0,0.1,0.2,0.1h3.7c0.5,0,0.6,0,0.7-0.4l0.1-0.8c0-0.1,0-0.1-0.1-0.1l-0.9,0.1h-0.1c-0.1,0-0.1-0.1-0.1-0.2v-2.4h1.2l1.6,2.8
	c0.3,0.7,1,1.1,1.8,1.1c0.7,0,1.5,0,1.6-0.3l0.2-1C285.4,364.2,285.3,364.2,285.2,364.2L285.2,364.2z M281.7,360.2
	c-0.5,0.2-1,0.3-1.5,0.3h-0.9c-0.2,0-0.2,0-0.2-0.2v-3.7h1.2c1.2,0,2,0.6,2,1.8C282.4,359.1,282.2,359.7,281.7,360.2L281.7,360.2z
	 M46.4,338.5l0.2-1c0-0.1,0-0.1,0.1-0.1h1.6c0.1,0,0.1,0.1,0.2,0.2v8c0,0.2-0.1,0.2-0.4,0.3h-0.4c-0.4,0-0.4,0.1-0.4,0.4l-0.1,0.4
	v0.1c0,0.1,0,0.1,0.2,0.1h3.9c0.5,0,0.6,0,0.7-0.4l0.1-0.9c0-0.1,0-0.1-0.1-0.1l-0.9,0.1H51c-0.1,0-0.1-0.1-0.1-0.2v-7.7
	c0-0.1,0-0.2,0.2-0.2h1.5c0.1,0,0.1,0,0.1,0.1l0.2,1c0,0.1,0,0.1,0.1,0.2h0.1l1.2-0.1c0.1,0,0.2,0,0.2-0.2v-0.3l-0.4-1.7
	c0-0.2-0.3-0.3-0.5-0.3h-8.1c-0.2,0-0.4,0.1-0.5,0.3l-0.3,1.7v0.3c0,0.1,0.1,0.2,0.2,0.2l1.3,0.1C46.4,338.7,46.4,338.7,46.4,338.5z
	 M62.7,345.9h-0.4c-0.4,0-0.4,0.1-0.4,0.4l-0.1,0.4v0.1c0,0.1,0,0.1,0.2,0.1h3.9c0.5,0,0.6,0,0.7-0.4l0.1-0.9c0-0.1,0-0.1-0.1-0.1
	l-0.9,0.1h-0.1c-0.1,0-0.1-0.1-0.1-0.2v-7.9c0-0.1,0.1-0.1,0.4-0.2h0.3c0.3,0,0.4-0.1,0.4-0.4l0.1-0.5c0-0.1,0-0.1-0.2-0.1h-3.7
	c-0.5,0-0.6,0-0.7,0.4l-0.1,0.8v0.1c0,0.1,0,0.1,0.1,0.1h0l0.8-0.1H63c0.1,0,0.1,0,0.1,0.1v3l-3.9,0.1v-3.4c0-0.1,0.1-0.1,0.4-0.2
	h0.3c0.4,0,0.4-0.1,0.4-0.4v-0.5c0-0.1,0-0.1-0.2-0.1h-3.7c-0.5,0-0.6,0-0.7,0.4l-0.1,0.8v0.1c0,0.1,0,0.1,0.1,0.1h0l0.8-0.1h0.1
	c0.1,0,0.1,0.1,0.1,0.2v7.9c0,0.1-0.2,0.2-0.4,0.2h-0.4c-0.4,0-0.4,0.1-0.4,0.4l-0.1,0.4v0.1c0,0.1,0,0.1,0.2,0.1h3.9
	c0.5,0,0.6,0,0.7-0.4l0.1-0.9c0-0.1,0-0.1-0.1-0.1l-0.9,0.1h-0.1c-0.1,0-0.1-0.1-0.1-0.2v-3.2l3.9,0.2v3.2
	C63.1,345.8,63,345.8,62.7,345.9z M68.6,345.9h-0.4c-0.3,0.1-0.3,0.1-0.4,0.4l-0.1,0.4v0.1c0,0.1,0.1,0.1,0.2,0.1h7.9
	c0.2,0,0.4-0.1,0.5-0.3l0.4-2.2v-0.3c0-0.1-0.1-0.2-0.2-0.2l-1.2-0.1h-0.1c-0.1,0-0.1,0-0.1,0.2l-0.3,1.3c0,0.1,0,0.1-0.2,0.1
	l-3.1,0.2c-0.1,0-0.2-0.1-0.2-0.2V342l2.8,0.3c0.1,0,0.2,0,0.2-0.1l0.2-1.4c0-0.1-0.1-0.2-0.2-0.2l-3,0.1v-2.9
	c0-0.2,0.1-0.3,0.2-0.3h3c0.1,0,0.1,0,0.1,0.1v0.1l-0.3,1.1v0.1c0,0.1,0,0.1,0.2,0.1l1,0.1h0.1c0.2,0,0.3-0.1,0.4-0.4l0.4-2.2v-0.1
	c0-0.3-0.3-0.3-0.4-0.3h-7.8c-0.3,0-0.4,0.1-0.4,0.3l-0.1,1v0.1c0,0.1,0.1,0.1,0.2,0.1l0.8-0.1c0.1,0,0.1,0,0.1,0.1v7.9
	C69,345.8,68.9,345.8,68.6,345.9z M82.5,346.5l0.1-0.9c0-0.1,0-0.1-0.1-0.1l-0.9,0.1h-0.1c-0.1,0-0.1-0.1-0.1-0.2v-2.5h1.3l1.7,3
	c0.3,0.8,1.1,1.2,1.9,1.2c0.7,0,1.6,0,1.7-0.3l0.2-1.1c0-0.1-0.1-0.1-0.2-0.1l-0.8,0.1h-0.1c-0.3,0-0.4-0.2-0.7-0.7l-1.3-2.3
	c1.5-0.3,2.5-1.7,2.4-3.2c0-1.8-1.3-3.2-4.7-3.2h-4.1c-0.5,0-0.6,0-0.7,0.4l-0.1,0.8v0.1c0,0.1,0.1,0.1,0.2,0.1l0.9-0.1h0.1
	c0.1,0,0.1,0,0.1,0.1v8c0,0.2-0.1,0.2-0.4,0.3h-0.4c-0.4,0-0.4,0.1-0.4,0.4l-0.1,0.4v0.1c0,0.1,0,0.1,0.2,0.1H82
	C82.4,346.9,82.5,346.9,82.5,346.5z M81.4,337.5L81.4,337.5l1.3-0.1c1.3,0,2.1,0.6,2.1,1.9c0.1,0.7-0.1,1.4-0.6,1.9
	c-0.5,0.2-1.1,0.3-1.6,0.3h-1c-0.2,0-0.2,0-0.2-0.2L81.4,337.5z M89.9,345.9h-0.4c-0.3,0.1-0.3,0.1-0.4,0.4l-0.1,0.4v0.1
	c0,0.1,0.1,0.1,0.2,0.1h7.9c0.2,0,0.4-0.1,0.5-0.3l0.4-2.2v-0.3c0-0.1-0.1-0.2-0.2-0.2l-1.2-0.1h-0.1c-0.1,0-0.1,0-0.1,0.2l-0.3,1.3
	c0,0.1,0,0.1-0.2,0.1l-3.1,0.2c-0.1,0-0.2-0.1-0.2-0.2V342l2.8,0.3c0.1,0,0.2,0,0.2-0.1l0.2-1.4c0-0.1-0.1-0.2-0.2-0.2l-3,0.1v-2.9
	c0-0.2,0.1-0.3,0.2-0.3h3c0.1,0,0.1,0,0.1,0.1v0.1l-0.3,1.1v0.1c0,0.1,0,0.1,0.2,0.1l1,0.1h0.1c0.2,0,0.3-0.1,0.4-0.4l0.4-2.2v-0.1
	c0-0.3-0.3-0.3-0.4-0.3h-7.8c-0.3,0-0.4,0.1-0.4,0.3l-0.1,1v0.1c0,0.1,0.1,0.1,0.2,0.1l0.8-0.1c0.1,0,0.1,0,0.1,0.1v7.9
	C90.3,345.8,90.2,345.8,89.9,345.9z M103.3,346.9h3.9c0.5,0,0.6,0,0.7-0.4l0.1-0.9c0-0.1,0-0.1-0.1-0.1l-0.9,0.1h-0.1
	c-0.1,0-0.1,0-0.1-0.1v-8c0-0.1,0.1-0.1,0.4-0.2h0.3c0.3,0,0.4-0.1,0.4-0.4l0.1-0.5c0-0.1,0-0.1-0.2-0.1h-3.7c-0.5,0-0.6,0-0.7,0.4
	l-0.1,0.8v0.1c0,0.1,0,0.1,0.1,0.1c0,0,0,0,0,0l0.8-0.1h0.1c0.1,0,0.1,0.1,0.1,0.2v7.9c0,0.1-0.2,0.2-0.4,0.2h-0.4
	c-0.4,0-0.4,0.1-0.4,0.4l-0.1,0.4v0.1C103.1,346.9,103.2,346.9,103.3,346.9z M112.9,345.5c-0.9,0-1.8-0.1-2.7-0.3
	c-0.2-0.1-0.5-0.1-0.7-0.1c-0.2,0-0.2,0-0.2,0.2v0.1l0.1,0.9c0,0.2,0.1,0.3,0.4,0.4c1,0.2,2.1,0.3,3.1,0.3c2.6,0,4.4-0.7,4.4-3.4
	c0-2.5-1.5-3.1-3-3.3c-1.3-0.1-2.7,0-2.7-1.5c0-0.4,0.1-0.8,0.4-1.2c0.7-0.1,1.3-0.2,2-0.2c0.7,0,1.4,0.1,2.1,0.2h0.2
	c0.1,0,0.2-0.1,0.2-0.3l0.2-0.9v-0.2c0-0.1-0.1-0.1-0.3-0.2c-0.8-0.1-1.6-0.2-2.4-0.2c-3,0-4.6,0.5-4.6,3c0,2.9,1.6,3.2,3.1,3.4
	s2.6,0,2.6,1.5c0,0.4-0.1,0.8-0.3,1.2C114.3,345.4,113.6,345.6,112.9,345.5z M130.8,346.7c0.1,0.2,0.4,0.2,0.6,0.2h1
	c0.1,0,0.2,0,0.2-0.1v-9.2c0-0.1,0.1-0.2,0.4-0.2h0.4c0.4,0,0.4-0.1,0.4-0.4l0.1-0.5v-0.1c0-0.1-0.1-0.1-0.2-0.1h-2.9
	c-0.5,0-0.6,0-0.7,0.4l-0.1,0.8v0.1c0,0.1,0,0.1,0.1,0.1h0l0.9-0.1h0.1c0.1,0,0.1,0.1,0.1,0.2v5.5l-5.5-6.6
	c-0.2-0.3-0.5-0.5-0.8-0.5h-1.6c-0.5,0-0.6,0-0.7,0.4l-0.1,0.8v0.1c0,0.1,0.1,0.1,0.2,0.1l0.9-0.1h0.1c0.1,0,0.1,0.1,0.1,0.2v7.8
	c0,0.2-0.1,0.2-0.4,0.3H123c-0.3,0-0.4,0.1-0.4,0.4l-0.1,0.5v0.1c0,0.1,0,0.1,0.2,0.1h2.9c0.5,0,0.6,0,0.7-0.4l0.1-0.9
	c0-0.1,0-0.1-0.1-0.1l-0.9,0.1h-0.1c-0.1,0-0.1,0-0.1-0.1v-5.6L130.8,346.7z M140.8,336c-2.9-0.1-5.4,2.1-5.5,5c0,0.2,0,0.3,0,0.5
	c0,4.7,2.7,5.5,5,5.5c2.9,0.2,5.3-2,5.5-4.9c0-0.2,0-0.4,0-0.6C145.8,336.8,143.2,336,140.8,336z M142.1,345.4
	c-0.4,0.2-0.9,0.3-1.3,0.3c-1.3,0-2.8-1.2-2.8-4.2c0-2,0.4-3.2,1.1-3.9c0.4-0.2,0.8-0.3,1.3-0.3c1.4,0,2.8,1.1,2.8,4.2
	C143.2,343.5,142.8,344.7,142.1,345.4z M158.2,337.5c0.8,0,1.5,0.1,2.3,0.2h0.3c0.1,0,0.2,0,0.2-0.2l0.2-0.9v-0.1
	c0-0.1-0.1-0.2-0.2-0.2c-1.1-0.2-2.1-0.3-3.2-0.3c-3.7,0-5.9,1.3-5.9,5.6c0,5,3.5,5.5,5.5,5.5c1.2,0,2.5-0.2,3.7-0.5
	c0.2-0.1,0.2-0.1,0.2-0.3v-4.8c0-0.2,0-0.2-0.2-0.2h-2.5c-0.5,0-0.6,0-0.7,0.4l-0.1,0.8v0.1c0,0.1,0.1,0.1,0.2,0.1l0.8-0.1
	c0.2,0,0.2,0,0.2,0.2v2.5c0,0.2,0,0.2-0.2,0.2c-0.4,0.1-0.9,0.1-1.3,0.1c-0.7,0-2.9-0.1-2.9-4c0-1.4,0.3-3,1.2-3.8
	C156.6,337.6,157.4,337.5,158.2,337.5z M174.1,341.5c0-4.8-2.7-5.5-5-5.5c-2.9-0.1-5.4,2.1-5.5,5c0,0.2,0,0.3,0,0.5
	c0,4.7,2.7,5.5,5,5.5c2.8,0.2,5.3-1.9,5.5-4.8C174.1,342,174.1,341.7,174.1,341.5z M166.2,341.5c0-2,0.4-3.2,1.1-3.9
	c0.4-0.2,0.8-0.3,1.3-0.3c1.4,0,2.8,1.1,2.8,4.2c0,1.9-0.4,3.2-1.1,3.9c-0.4,0.2-0.9,0.3-1.3,0.3
	C167.6,345.8,166.2,344.6,166.2,341.5z M175.6,336.5l-0.1,0.9v0.1c0,0.1,0.1,0.1,0.2,0.1l0.8-0.1h0.1c0.1,0,0.1,0,0.1,0.1v7.9
	c0,0.1-0.1,0.2-0.4,0.2h-0.4c-0.3,0.1-0.4,0.1-0.4,0.4l-0.1,0.5v0.1c0,0.1,0,0.1,0.2,0.1c1.7,0,3.3,0.1,4.9,0.1
	c3.4,0,5.8-1.8,5.8-5.6c0-4.6-2.8-5.4-5.4-5.4c-1.3,0-3.6,0.1-4.5,0.1C175.8,336.1,175.6,336.3,175.6,336.5z M179,337.7
	c0-0.2,0.1-0.3,0.4-0.3l1.2-0.1c1.6,0,3,1.1,3,4c0,2-0.4,3.3-1.2,4.1c-0.6,0.3-1.3,0.5-2,0.4c-1.3,0-1.3-0.2-1.3-0.4L179,337.7
	L179,337.7z M201.1,343.7c0.1-1.3-0.9-2.5-2.2-2.6c-0.1,0-0.1,0-0.2,0c1.1-0.3,1.9-1.3,1.8-2.5c0-2-1.9-2.4-4.2-2.4h-3.9
	c-0.5,0-0.6,0-0.7,0.4l-0.1,0.8v0.1c0,0.1,0,0.1,0.1,0.1h0l0.8-0.1h0.1c0.1,0,0.1,0,0.1,0.1v7.9c0,0.1-0.1,0.2-0.4,0.2h-0.4
	c-0.3,0.1-0.3,0.1-0.4,0.4l-0.1,0.5v0.1c0,0.1,0,0.1,0.2,0.1c3.6,0.1,4.2,0.1,4.8,0.1C198.9,347,201.1,346.2,201.1,343.7z
	 M195.1,337.5c0-0.2,0-0.3,0.3-0.3h1.1c1.1,0,1.7,0.6,1.7,1.5c0.1,0.6-0.1,1.1-0.4,1.6c-0.4,0.2-0.8,0.2-1.2,0.2h-1.5V337.5z
	 M195.1,345.5v-3.8h1.7c1,0,1.7,0.8,1.7,1.8c0,0,0,0.1,0,0.1c0.1,0.7-0.2,1.4-0.7,1.9c-0.4,0.2-0.9,0.2-1.3,0.2h-1.3
	C195.1,345.7,195.1,345.7,195.1,345.5z M209.7,345.6c-0.4,0.1-0.8,0.2-1.2,0.2c-1.2,0-2.5-0.7-2.5-2.8v-5.5c0-0.1,0.1-0.2,0.4-0.3
	h0.4c0.4,0,0.4-0.1,0.4-0.4l0.1-0.4v-0.1c0-0.1-0.1-0.1-0.2-0.1h-4.2c-0.5,0-0.6,0-0.7,0.4l-0.1,0.8v0.1c0,0.1,0.1,0.1,0.2,0.1
	l0.9-0.1h0.1c0.1,0,0.1,0.1,0.1,0.2v5.2l0,0c0,3.6,2.5,4.1,4.7,4.1c2.5,0,4.1-1.5,4.1-3.8v-5.8c0-0.1,0.1-0.2,0.4-0.3h0.4
	c0.3,0,0.4-0.1,0.4-0.4l0.1-0.4v-0.1c0-0.1-0.1-0.1-0.2-0.1h-2.9c-0.5,0-0.6,0-0.7,0.4l-0.1,0.8v0.1c0,0.1,0.1,0.1,0.2,0.1l0.9-0.1
	h0.1c0.1,0,0.1,0,0.1,0.1v5.7C210.9,344.2,210.5,345.1,209.7,345.6z M220.6,337.4h1.5c0.1,0,0.1,0,0.1,0.1l0.2,1
	c0,0.1,0,0.1,0.1,0.2h0.1l1.2-0.1c0.1,0,0.2,0,0.2-0.2v-0.3l-0.4-1.7c0-0.2-0.3-0.3-0.5-0.3h-8c-0.2,0-0.4,0.1-0.5,0.3l-0.3,1.7v0.3
	c0,0.1,0.1,0.2,0.2,0.2l1.3,0.1c0.1,0,0.1,0,0.2-0.2l0.2-1c0-0.1,0-0.1,0.1-0.1h1.6c0.1,0,0.1,0.1,0.2,0.2v8c0,0.2-0.1,0.2-0.4,0.3
	h-0.4c-0.4,0-0.4,0.1-0.4,0.4l-0.1,0.4v0.1c0,0.1,0,0.1,0.2,0.1h3.9c0.5,0,0.6,0,0.7-0.4l0.1-0.9c0-0.1,0-0.1-0.1-0.1l-0.9,0.1h-0.1
	c-0.1,0-0.1-0.1-0.1-0.2v-7.7C220.4,337.5,220.4,337.4,220.6,337.4z M240.2,346.9c0.3,0,0.4-0.1,0.4-0.3l0.2-1
	c0-0.1-0.1-0.1-0.2-0.1l-0.7,0.1c-0.3,0-0.4-0.1-0.5-0.4l-3.3-8.5c-0.1-0.4-0.2-0.4-0.5-0.4h-2.7c-0.5,0-0.6,0-0.7,0.4l-0.1,0.8v0.1
	c0,0.1,0.1,0.1,0.2,0.1l0.8-0.1h0.1c0.1,0,0.1,0,0.1,0.1v0.1l-0.1,0.2l0,0l-2.7,7.2c-0.2,0.5-0.3,0.6-0.6,0.6l-0.6,0.1
	c-0.1,0-0.2,0-0.3,0.3l-0.1,0.5v0.1c0,0.1,0.1,0.2,0.4,0.2h3.3c0.2,0,0.4,0,0.5-0.3l0.1-1c0-0.1-0.1-0.1-0.2-0.1l-0.7,0.1h-0.1
	c-0.2,0-0.3-0.1-0.3-0.2c0-0.1,0-0.3,0.1-0.4l0.5-1.4h3.7l0.7,1.8v0.2c0,0.1-0.1,0.1-0.3,0.2L236,346c-0.1,0-0.2,0.1-0.3,0.2
	l-0.1,0.4v0.3c0,0.1,0.1,0.2,0.3,0.2h4.3L240.2,346.9z M232.9,342.3l1.3-3.8l1.5,3.8H232.9z M242.6,345.9h-0.4
	c-0.3,0.1-0.3,0.1-0.4,0.4l-0.1,0.4v0.1c0,0.1,0,0.1,0.2,0.1h7.9c0.2,0,0.4-0.1,0.5-0.3l0.4-2.2v-0.3c0-0.1-0.1-0.2-0.2-0.2
	l-1.3-0.1c-0.1,0-0.1,0-0.1,0.2l-0.3,1.3c0,0.1,0,0.1-0.1,0.1l-3.1,0.2c-0.1,0-0.2-0.1-0.2-0.2v-8c0-0.1,0.1-0.2,0.4-0.3h0.4
	c0.3,0,0.4-0.1,0.4-0.4l0.1-0.5c0-0.1,0-0.1-0.2-0.1h-3.9c-0.5,0-0.6,0-0.7,0.4l-0.1,0.8v0.1c0,0.1,0.1,0.1,0.2,0.1l0.9-0.1h0.1
	c0.1,0,0.1,0.1,0.1,0.2v7.9C243,345.8,242.9,345.8,242.6,345.9z M252.5,345.9h-0.4c-0.3,0.1-0.3,0.1-0.4,0.4l-0.1,0.4v0.1
	c0,0.1,0,0.1,0.2,0.1h7.9c0.2,0,0.4-0.1,0.5-0.3l0.4-2.2v-0.3c0-0.1-0.1-0.2-0.2-0.2l-1.3-0.1c-0.1,0-0.1,0-0.1,0.2l-0.3,1.3
	c0,0.1,0,0.1-0.1,0.1l-3.1,0.2c-0.1,0-0.2-0.1-0.2-0.2v-8c0-0.1,0.1-0.2,0.4-0.3h0.4c0.3,0,0.4-0.1,0.4-0.4l0.1-0.5
	c0-0.1,0-0.1-0.2-0.1h-3.9c-0.5,0-0.6,0-0.7,0.4l-0.1,0.8v0.1c0,0.1,0.1,0.1,0.2,0.1l0.9-0.1h0.1c0.1,0,0.1,0.1,0.1,0.2v7.9
	C252.9,345.8,252.8,345.8,252.5,345.9z M265.4,345.5l-0.7,0.1h-0.1c-0.2,0-0.3-0.1-0.3-0.2c0-0.1,0-0.3,0.1-0.4l0.5-1.4h3.7l0.7,1.8
	v0.2c0,0.1-0.1,0.1-0.3,0.2l-0.6,0.1c-0.1,0-0.2,0.1-0.3,0.2l-0.1,0.4v0.3c0,0.1,0.1,0.2,0.3,0.2h4.3c0.3,0,0.4-0.1,0.4-0.3l0.2-1
	c0-0.1-0.1-0.1-0.2-0.1l-0.7,0.1c-0.3,0-0.4-0.1-0.5-0.4l-3.3-8.5c-0.1-0.4-0.2-0.4-0.5-0.4h-2.7c-0.5,0-0.6,0-0.7,0.4l-0.1,0.8v0.1
	c0,0.1,0.1,0.1,0.2,0.1l0.8-0.1h0.1c0.1,0,0.1,0,0.1,0.1v0.1l-0.1,0.2l0,0l-2.7,7.2c-0.2,0.5-0.3,0.6-0.6,0.6l-0.6,0.1
	c-0.1,0-0.2,0-0.3,0.3l-0.1,0.5v0.1c0,0.1,0.1,0.2,0.4,0.2h3.3c0.2,0,0.4,0,0.5-0.3l0.1-1C265.6,345.5,265.5,345.5,265.4,345.5z
	 M266.7,338.5l1.5,3.8h-2.8L266.7,338.5z M275,345.9h-0.4c-0.4,0-0.4,0.1-0.4,0.4l-0.1,0.4v0.1c0,0.1,0,0.1,0.2,0.1h3.9
	c0.5,0,0.6,0,0.7-0.4l0.1-0.9c0-0.1,0-0.1-0.1-0.1l-0.9,0.1h-0.1c-0.1,0-0.1-0.1-0.1-0.2v-3.2l3.9,0.2v3.2c0,0.2-0.1,0.2-0.4,0.3
	h-0.4c-0.4,0-0.4,0.1-0.4,0.4l-0.1,0.4v0.1c0,0.1,0,0.1,0.2,0.1h3.9c0.5,0,0.6,0,0.7-0.4l0.1-0.9c0-0.1,0-0.1-0.1-0.1l-0.9,0.1h-0.1
	c-0.1,0-0.1-0.1-0.1-0.2v-7.9c0-0.1,0.1-0.1,0.4-0.2h0.3c0.3,0,0.4-0.1,0.4-0.4l0.1-0.5c0-0.1,0-0.1-0.2-0.1h-3.7
	c-0.5,0-0.6,0-0.7,0.4l-0.1,0.8v0.1c0,0.1,0,0.1,0.1,0.1l0,0l0.8-0.1h0.1c0.1,0,0.1,0,0.1,0.1v3l-3.9,0.1v-3.4
	c0-0.1,0.1-0.1,0.4-0.2h0.3c0.4,0,0.4-0.1,0.4-0.4v-0.5c0-0.1,0-0.1-0.2-0.1h-3.6c-0.5,0-0.6,0-0.7,0.4l-0.1,0.8v0.1
	c0,0.1,0,0.1,0.1,0.1l0,0l0.8-0.1h0.1c0.1,0,0.1,0.1,0.1,0.2v7.9C275.4,345.8,275.3,345.8,275,345.9L275,345.9z M27.5,309.2
	c-0.1,0-0.2,0.1-0.4,0.1l-5,1c-0.7,0.2-1.3,0.3-2,0.3c-1.9,0-2.4-0.8-2.4-2.9v-12h5.5c2.7,0,3.5-0.2,3.8-2.4l0.7-5.9
	c0-0.6-0.3-0.7-0.9-0.7l-9.1,1.1v-11.5c0-1-0.4-1.3-0.9-1.3c-0.7,0-0.9,0-2.4,1.3l-7.5,5.5c-1.1,1-1.7,1.6-1.7,3v4.6l-2.7,0.3
	c-1.9,0.5-1.9,0.6-2.2,2.7L0,294.7c0.1,0.2,0.1,0.3,0.1,0.5c0,0.4,0.3,0.6,0.9,0.6h4.3v14.5c0,5.7,0,9.7,6.4,9.7
	c3.8,0,10.1-1.4,13.9-2.5c1.1-0.3,1.4-0.4,1.6-1.4l1-6.1C28.2,309.5,28,309.2,27.5,309.2z M51.7,316.8l0.7-5.5
	c0-0.5-0.2-0.7-0.7-0.7l-3,0.3c-0.1,0-0.2,0.1-0.4,0.1c-0.6,0-0.6-0.4-0.6-1.2v-11.2c1.6-1.2,2.7-2,4.4-2c3.2,0,5,2.1,6,2.1
	c0.4,0,0.9-0.2,1.1-1.2l1.3-7.8c0.1-0.4,0.1-0.8,0.1-1.2c0-1.3-1.9-1.7-4.4-1.7c-3.4,0.1-6.5,1.7-8.5,4.4v-3c0-0.8,0-1.4-0.8-1.4
	c-0.7,0.1-1.3,0.2-2,0.3l-10.8,3.2c-1.7,0.5-2.4,0.8-2.7,2.3l-0.8,3.2c-0.1,0.1-0.1,0.2-0.1,0.3c0,0.4,0.3,0.6,0.7,0.6l2.7,0.7
	c1.3,0.3,1.4,0.4,1.4,2.1v12c0,0.8-0.6,1-1.9,1.3l-1.1,0.3c-1.9,0.5-1.9,0.6-2.2,2.7l-0.3,2.3c-0.1,0.2-0.1,0.3-0.1,0.5
	c0,0.4,0.3,0.6,0.9,0.6h17.2C50.8,319.2,51.4,319,51.7,316.8L51.7,316.8z M100.6,317.4l1-6.1c0-0.5-0.2-0.8-0.7-0.8
	c-0.1,0-0.2,0.1-0.4,0.1l-1.2,0.1c-0.3,0.1-0.7,0.1-1,0.1c-0.7,0-0.9-0.3-0.9-1.1v-14.6c0-4.5,0-7.6-6.4-7.6
	c-2.6,0.1-5.2,0.5-7.7,1.1c-1.1,0.2-1.4,0.4-1.6,1.4l-1,5.8c0,0.1-0.1,0.2-0.1,0.3c0,0.5,0.2,0.8,0.7,0.8c0.1,0,0.3,0,0.4-0.1
	l1.2-0.1c0.3-0.1,0.7-0.1,1-0.1c0.7,0,0.9,0.3,0.9,1v12.5c-1.1,0.8-2.5,1.3-3.9,1.3c-1.6,0-2.7-0.6-2.7-2.6v-13.7
	c0-4.5,0-7.6-6.4-7.6c-2.6,0.1-5.2,0.5-7.7,1.1c-1.1,0.2-1.4,0.4-1.6,1.4l-1,5.8c0,0.1-0.1,0.2-0.1,0.3c0,0.5,0.2,0.8,0.7,0.8
	c0.1,0,0.3,0,0.4-0.1l1.2-0.1c0.3-0.1,0.7-0.1,1-0.1c0.7,0,0.9,0.3,0.9,1v11.2c0,8.4,4.5,11.1,9.8,11.1c3.6,0,7-1.7,9.2-4.6
	c0.3,2.8,1.5,4.6,6.3,4.6c2.6-0.1,5.2-0.5,7.7-1.1C100.1,318.6,100.4,318.4,100.6,317.4L100.6,317.4z M103.8,303.7
	c0,14.2,8.7,16.2,16.1,16.2c8.8,0,13.2-2.8,14.8-3.9c0.6-0.4,0.7-0.8,1-2.1l0.7-3.8c0.1-0.2,0.1-0.4,0.1-0.6c0-0.8-0.4-1.1-0.9-1.1
	c-0.4,0-0.8,0.1-1.2,0.3c-3.9,2-6,2.6-9.5,2.6c-3.7,0-6-0.6-7.2-2.5l4.8-0.8c9.2-1.6,13.4-2.2,13.4-9.5c0-6.9-3.8-11.6-14.6-11.6
	C109.2,286.7,103.8,292.5,103.8,303.7z M117.6,294.6c1.2-0.5,2.6-0.7,3.9-0.7c2.2,0,3.4,1,3.4,3.2c0,2.4-0.6,3-4.3,3.7l-4.4,0.8
	C116.3,300.1,116.4,297,117.6,294.6z M174,311c-0.6,0-0.6-0.4-0.6-1.2v-21.6c0-0.8,0-1.4-0.8-1.4c-0.7,0.1-1.3,0.2-2,0.3l-10.9,3.2
	c-1.7,0.5-2.4,0.8-2.7,2.3l-0.8,3.2c-0.1,0.1-0.1,0.2-0.1,0.3c0,0.4,0.3,0.6,0.7,0.6l2.7,0.7c1.3,0.3,1.4,0.4,1.4,2.1v12
	c0,0.8-0.6,1-1.9,1.3l-1.1,0.3c-1.9,0.5-1.9,0.6-2.2,2.7l-0.3,2.3c-0.1,0.2-0.1,0.3-0.1,0.5c0,0.4,0.3,0.6,0.9,0.6h17.2
	c2.9,0,3.5-0.2,3.8-2.4l0.7-5.5c0-0.5-0.2-0.7-0.7-0.7l-3,0.3C174.3,310.9,174.2,311,174,311z M166,285.4c0.5-0.1,1-0.3,1.4-0.7
	l6.2-5c0.6-0.4,0.9-0.7,0.9-1c-0.1-0.4-0.2-0.8-0.4-1.2l-5-7.3c-0.6-1-0.9-1.4-1.3-1.4c-0.5,0.1-1,0.3-1.4,0.7l-6.2,4.7
	c-1,0.8-1.6,1.2-1.6,1.9c0.1,0.5,0.3,1,0.7,1.4l5.3,6.9C165.1,285.1,165.6,285.4,166,285.4z M181.7,316.9c0,0.8,0.5,1.5,1.3,1.7
	c1.3,0.5,4.9,1.3,11.1,1.3c7.4,0,14.5-1.2,14.5-10.6c0-7.4-4.4-10.6-8.8-11.3c-4.2-0.7-8,0.3-8-1.8c0-0.6,0.2-0.9,0.4-1
	c1.4-0.1,3.3-0.1,5.9-0.1c3.2,0,5.8,0.3,6.8,0.3c0.7,0,0.9-0.3,1.1-1.4l0.7-4.6c0.1-0.4,0.1-0.8,0.1-1.2c0-0.6-0.3-0.8-1.4-1
	c-2.5-0.2-4.9-0.3-9.3-0.3c-8.1,0-14.7,0.3-14.7,10.5c0,16.2,16.9,9,16.9,13.3c0,0.3,0,0.7-0.2,1c-1.5,0.2-3.1,0.3-4.6,0.3
	c-2.9,0-5.7-0.4-8.5-1.2c-1-0.3-2-0.5-3-0.6c-0.6,0-0.9,0.3-0.9,1c0,0.2,0,0.4,0.1,0.6L181.7,316.9z M231.4,316.8l0.7-5.5
	c0-0.5-0.2-0.7-0.7-0.7l-3,0.3c-0.1,0-0.2,0.1-0.4,0.1c-0.6,0-0.6-0.4-0.6-1.2v-40.6c0-0.8,0-1.4-0.8-1.4c-4.8,0.9-9.5,2.2-14.1,3.9
	c-0.8,0.4-1.4,1.1-1.6,2l-0.8,3.3c-0.1,0.1-0.1,0.2-0.1,0.3c0,0.4,0.3,0.5,0.8,0.6l2.7,0.6c1.3,0.3,1.4,0.6,1.4,2.1v30.9
	c0,0.8-0.6,1-1.9,1.3l-1.1,0.3c-1.9,0.5-1.9,0.6-2.2,2.7l-0.3,2.3c-0.1,0.2-0.1,0.3-0.1,0.5c0,0.4,0.3,0.6,0.9,0.6h17.2
	C230.4,319.2,231.1,319,231.4,316.8L231.4,316.8z M237.6,288.8c-1.2,0.4-1.7,0.6-1.7,1.5c0,0.5,0.1,1.1,0.2,1.6l1,4.5
	c0.3,1.3,0.4,2,1.4,2s3.4-1.1,8.3-3.7c0.9-0.1,1.9-0.2,2.8-0.2c2.5,0,3.1,1.9,3.2,6.1c-2.1-0.7-4.3-1-6.5-1
	c-6.1,0-11.6,2.3-11.6,9.9c0,6.3,2.7,10.3,8.5,10.3c4.5,0,7.2-1.2,9.8-4.6c0.3,2.8,1.5,4.6,6.3,4.6c2.6-0.1,5.2-0.5,7.7-1.1
	c1.1-0.2,1.4-0.4,1.6-1.4l1-5.8v-0.3c0-0.4-0.2-0.6-0.7-0.6l-2.7,0.3H266c-0.4,0-0.6-0.2-0.6-1.1v-8.1c0-12.8-4.5-15-14.1-15
	C246.7,286.7,242,287.4,237.6,288.8L237.6,288.8z M252.8,311.2c-1.2,0.7-2.6,1-4,1c-1.7,0-2.3-1.1-2.3-3.5c-0.1-1.1,0.1-2.1,0.6-3.1
	c0.8-0.2,1.6-0.3,2.4-0.3c1.2,0,2.4,0.3,3.4,0.8L252.8,311.2L252.8,311.2z M329,310.6c-0.1,0-0.2,0.1-0.4,0.1l-1.2,0.1
	c-0.4,0.1-0.7,0.1-1.1,0.1c-0.6,0-0.8-0.3-0.9-0.8v-12.3c0-8.4-4.3-11.1-9.4-11.1c-3.9,0.1-7.5,2.2-9.5,5.6
	c-1.5-4.1-4.8-5.6-8.6-5.6c-3.6,0.1-6.9,1.8-9,4.6v-3.2c0-0.8,0-1.4-0.8-1.4c-0.7,0.1-1.3,0.2-2,0.3l-10.9,3.2
	c-1.7,0.5-2.4,0.8-2.7,2.3l-0.8,3.2c-0.1,0.1-0.1,0.2-0.1,0.3c0,0.4,0.3,0.6,0.7,0.6l2.7,0.7c1.3,0.3,1.4,0.4,1.4,2.1v12
	c0,0.8-0.6,1-1.9,1.3l-1.1,0.3c-1.9,0.5-1.9,0.6-2.2,2.7l-0.3,2.3c-0.1,0.2-0.1,0.3-0.1,0.5c0,0.4,0.3,0.6,0.9,0.6h17.2
	c2.9,0,3.5-0.2,3.8-2.4l0.7-5.5c0-0.5-0.2-0.7-0.7-0.7l-3,0.3c-0.1,0-0.2,0.1-0.4,0.1c-0.6,0-0.6-0.4-0.6-1.2v-13.3
	c1.1-0.8,2.4-1.2,3.7-1.3c1.4,0,2.3,0.6,2.3,2.6v14.5c0,4.5,0,7.6,6.4,7.6c2.6-0.1,5.2-0.5,7.7-1.1c1.1-0.2,1.4-0.4,1.6-1.4l1-6.1
	c0-0.5-0.2-0.8-0.7-0.8c-0.1,0-0.2,0.1-0.4,0.1l-1.2,0.1c-0.3,0.1-0.7,0.1-1,0.1c-0.7,0-0.9-0.3-0.9-1.1v-13.3
	c0.9-0.8,2.1-1.2,3.3-1.3c1.4,0,2.3,0.6,2.3,2.6v14.5c0,4.5,0,7.6,6.4,7.6c2.6-0.1,5.2-0.5,7.7-1.1c1.1-0.2,1.4-0.4,1.6-1.4l1-6.1
	C329.7,310.8,329.5,310.6,329,310.6L329,310.6z"/>
</svg>
