<?xml version="1.0" encoding="utf-8"?>
<!-- Generator: Adobe Illustrator 21.0.2, SVG Export Plug-In . SVG Version: 6.00 Build 0)  -->
<svg version="1.1" id="Layer_1" xmlns="http://www.w3.org/2000/svg" xmlns:xlink="http://www.w3.org/1999/xlink" x="0px" y="0px"
	 viewBox="0 0 329.6 365.7" style="enable-background:new 0 0 329.6 365.7;" xml:space="preserve">
<g>
	<g>
		<path d="M120.3,214.7c-2.3,0.1-4.6,0.3-6.8,0.4v27.4c-14.4,0.9-28.1,2.2-41,3.9v6.8c14.9-1.9,31-3.4,47.8-4.3V214.7z M65.7,240.5
			c12.8-1.8,26.6-3.3,41-4.4v-20.5c-2.3,0.2-4.6,0.4-6.8,0.5v13.7c-2.3,0.2-4.6,0.4-6.8,0.6v-13.7c-2.3,0.2-4.6,0.4-6.8,0.7v13.7
			c-2.3,0.2-4.6,0.5-6.8,0.8v-13.7c-2.3,0.3-4.6,0.5-6.8,0.8v13.7c-2.3,0.3-4.6,0.6-6.8,0.9V220c-7.1,1-14,2.1-20.5,3.3v20.5
			c4.4-0.8,9-1.6,13.7-2.3v6.9c-4.7,0.7-9.3,1.5-13.7,2.3v6.8c6.5-1.2,13.4-2.3,20.5-3.3V240.5z M58.9,234.7
			c-2.3,0.4-4.6,0.7-6.8,1.1v-6.8c2.2-0.4,4.5-0.7,6.8-1.1V234.7z M106.7,195.1c0-33-0.1-45.6-0.1-77.6c-2.3,1.6-4.6,2.8-6.8,4.5
			c0,30.5,0.1,42.2,0.1,73.6C102.1,195.4,104.4,195.2,106.7,195.1z M120.3,201c0-37.8-0.1-53.5-0.1-90.1c-2.2,0.9-5.1,2.2-6.8,3.2
			c0,35.5,0.1,50.7,0.1,87.4c-23,1.5-45.4,4.1-68.1,8.2l-0.2,6.8c24.9-4.5,49.8-7.2,75.1-8.6V201z M270.6,227.8v6.8l-6.8-1v20.5
			c7.1,1,14,2.1,20.5,3.3c0.1-6.8-0.1-13.8-0.3-20.6l-6.5-1.1v-6.8l6.4,1.1c0.2-16.6-1-32.4-6.4-46.6v38.7c-2.2-0.4-6.8-1.1-6.8-1.1
			v-53c-3-4.9-4.4-7.4-7-11.3l0.1,70.2L270.6,227.8z M277.4,242.6v6.8c-2.2-0.4-4.5-0.7-6.8-1.1v-6.8
			C272.9,241.9,275.2,242.2,277.4,242.6z M93,189.4c0-27.5-0.1-36.1-0.1-62.8c-2.4,2.1-4.6,3.7-6.8,6c0,24.7,0.1,32,0.1,57.5
			c-2.3,0.2-4.6,0.5-6.8,0.8c0-23.1-0.1-29.5-0.1-51.9c-2.4,2.9-4.7,4.9-6.8,8.1c0,19.7,0.1,24.3,0.1,44.6c-2.3,0.3-4.6,0.6-6.8,0.9
			c0-16.7-0.1-20.2-0.1-36.5c-3.6,5.7-4.3,6.9-6.7,11.8c0,7.3,0,4.6,0,11.9c-8,3.5-10,10.6-11.8,22.3c13.6-2.4,30-4.4,46-5.9V189.4z
			 M58.9,193.6c-1.3,0.2-3.6,0.4-5.2,0.7c0.3-3.3,3.1-6.2,5.2-7.5V193.6z M215.9,242.5v-27.4c-6.7-0.4-13.5-0.8-20.5-1.1v6.8
			c4.6,0.2,9.2,0.4,13.7,0.6v6.8c-4.5-0.3-9.1-0.5-13.7-0.6v20.5c16.1,0.6,31.9,1.7,47.8,3.4l-0.1-118.8c-2.2-2.2-4.5-3.9-6.8-6
			l0.1,117.3C229.8,243.5,222.9,243,215.9,242.5z M209.1,242.1c-2.3-0.1-4.5-0.2-6.8-0.4v-6.8c2.3,0.1,4.6,0.2,6.8,0.4V242.1z
			 M229.6,236.7l-0.1-114.5c-2.2-1.7-4.5-3.1-6.8-4.5l0.1,118.4C225.1,236.3,227.3,236.5,229.6,236.7z M202.3,180.1v6.8l-6.8-0.3
			v20.5c7,0.3,13.8,0.6,20.5,1.1v-20.5l-6.8-0.4v-6.8l6.8,0.4l-0.1-66.6c-2.2-1.4-4.1-2.3-6.8-3.2c0,7.5,0.1,62.5,0.1,62.5l-6.8-0.4
			l-0.1-64.7c-2.4-1-4.2-1.5-6.8-2.2l0.1,73.5L202.3,180.1z M209.1,194.2v6.8c-2.3-0.1-4.5-0.2-6.8-0.4v-6.8
			C204.6,193.9,206.8,194,209.1,194.2z M188.6,248.1l-0.1-153.4c-2.4-4.5-6.8-11.5-6.8-11.5l0.1,164.7
			C184.1,247.9,186.3,248,188.6,248.1z M175,247.8v-20.5c-4.6-0.1-9.1-0.1-13.7-0.1v-6.8c4.6,0,9.1,0,13.7,0.1v-20.5
			c-6.8-0.1-13.7-0.1-20.5,0v34.2c4.6-0.1,9.1-0.1,13.7-0.1v6.8c-6.8,0-13.7,0-20.5,0.2v-13.7c-4.6,0.1-9.2,0.2-13.7,0.4v-6.8
			c4.5-0.2,9.1-0.3,13.7-0.4V200c-2.3,0-4.6,0.1-6.8,0.2v13.7c-2.3,0.1-4.6,0.1-6.8,0.2v-13.7c-2.3,0.1-4.6,0.2-6.8,0.3v47.9
			C143.1,247.8,159,247.6,175,247.8z M161.3,206.6h6.8v6.8h-6.8V206.6z M140.8,241.2c-2.3,0.1-4.6,0.1-6.8,0.2v-6.8
			c2.3-0.1,4.5-0.2,6.8-0.2V241.2z M175,193v-6.8c0-73.9-0.1-107.4-0.1-179L168,0c0,71.6,0.1,112.2,0.1,186.1h-6.8
			c0-73.9-0.1-114.5-0.1-186.1l-6.8,7.1c0,71.7,0.1,105.1,0.1,179c-2.3,0-4.6,0.1-6.8,0.1c0-68.7-0.1-103.3-0.1-103.3l-6.8,12.2
			l0.1,9.4c0,0-11.2,2.6-13.7,3.6v85.6C143.1,193.1,159,192.8,175,193z M140.8,186.4c-2.3,0.1-4.6,0.1-6.8,0.2c0,0,0-71.3,0-73.1
			c0,0,6.8-1.7,6.8-1.7V186.4z M256.9,253.3l-0.1-106c-2.1-3.1-4.4-5.2-6.8-8.1l0.1,113.3C252.4,252.7,254.6,253,256.9,253.3z
			 M59.4,364.2l-0.9,0.1c0,0-0.1,0-0.1,0c-0.1,0-0.1,0-0.1-0.1v-7.5c0-0.1,0.1-0.2,0.2-0.2l0.5-0.1c0.2,0,0.2-0.1,0.3-0.3l0.1-0.3
			c0-0.1,0-0.1,0-0.1c0-0.1-0.1-0.2-0.3-0.2h-2.3c-1.1,0-1.1,0.3-1.7,1.7l-2.8,6.4l-2.8-6.7c-0.5-1.2-0.5-1.4-1.3-1.4h-2.5
			c-0.5,0-0.6,0-0.6,0.4l-0.1,0.8c0,0,0,0,0,0.1c0,0.1,0.1,0.1,0.2,0.1l0.9-0.1H46c0.1,0,0.1,0.1,0.1,0.2v7.3c0,0.1-0.2,0.2-0.4,0.2
			l-0.4,0c-0.3,0-0.4,0.1-0.4,0.4l-0.1,0.5c0,0,0,0.1,0,0.1c0,0.1,0,0.1,0.2,0.1h2.8c0.5,0,0.6,0,0.7-0.4l0.1-0.9
			c0-0.1,0-0.1-0.1-0.1l-0.8,0.1c0,0-0.1,0-0.1,0c-0.1,0-0.1-0.1-0.1-0.2v-6.4l3.2,7.5c0.1,0.3,0.2,0.4,0.4,0.4h1.4
			c0.3,0,0.4-0.1,0.5-0.4l3.3-7.5v6.7c0,0.2-0.1,0.2-0.4,0.2l-0.3,0c-0.4,0-0.4,0.1-0.4,0.4l-0.1,0.4c0,0,0,0.1,0,0.1
			c0,0.1,0.1,0.1,0.2,0.1h3.6c0.5,0,0.6,0,0.7-0.4l0.1-0.8C59.6,364.3,59.5,364.2,59.4,364.2z M70.5,355.5h-2.8
			c-0.5,0-0.6,0-0.7,0.4l-0.1,0.8c0,0,0,0.1,0,0.1c0,0.1,0.1,0.1,0.2,0.1l0.9-0.1H68c0.1,0,0.1,0,0.1,0.1v5.3c0,1-0.5,1.8-1.1,2.1
			c-0.4,0.1-0.7,0.2-1.1,0.2c-1.1,0-2.4-0.6-2.4-2.6v-5.2c0-0.1,0.1-0.2,0.4-0.2l0.4,0c0.3,0,0.4-0.1,0.4-0.4l0.1-0.4c0,0,0,0,0-0.1
			c0-0.1-0.1-0.1-0.2-0.1h-3.9c-0.5,0-0.6,0-0.7,0.4l-0.1,0.8c0,0,0,0.1,0,0.1c0,0.1,0.1,0.1,0.2,0.1l0.9-0.1h0.1
			c0.1,0,0.1,0.1,0.1,0.2v4.9h0c0,3.3,2.3,3.9,4.4,3.9c2.4,0,3.9-1.4,3.9-3.6v-5.5c0-0.1,0.1-0.2,0.4-0.2l0.4,0
			c0.3,0,0.4-0.1,0.4-0.4l0.1-0.4c0,0,0,0,0-0.1C70.7,355.5,70.6,355.5,70.5,355.5z M81.5,364.2l-0.9,0.1c0,0-0.1,0-0.1,0
			c-0.1,0-0.1-0.1-0.1-0.2v-7.4c0-0.1,0.1-0.1,0.4-0.2l0.3,0c0.3,0,0.4-0.1,0.4-0.4l0.1-0.4c0-0.1,0-0.1-0.2-0.1h-3.5
			c-0.5,0-0.6,0-0.6,0.4l-0.1,0.8c0,0,0,0,0,0.1c0,0.1,0.1,0.1,0.1,0.1l0.8-0.1h0.1c0.1,0,0.1,0,0.1,0.1v2.8l-3.7,0.1v-3.2
			c0-0.1,0.1-0.1,0.4-0.2l0.3,0c0.3,0,0.4-0.1,0.4-0.4l0-0.4c0,0,0-0.1,0-0.1c0-0.1,0-0.1-0.2-0.1H72c-0.5,0-0.6,0-0.6,0.4l-0.1,0.8
			c0,0,0,0,0,0.1c0,0.1,0.1,0.1,0.1,0.1l0.8-0.1h0.1c0.1,0,0.1,0.1,0.1,0.2v7.4c0,0.1-0.2,0.2-0.4,0.2l-0.4,0
			c-0.4,0-0.4,0.1-0.4,0.4l-0.1,0.4c0,0,0,0.1,0,0.1c0,0.1,0,0.1,0.2,0.1h3.7c0.5,0,0.6,0,0.7-0.4l0.1-0.8c0-0.1,0-0.1-0.1-0.1
			l-0.9,0.1c0,0-0.1,0-0.1,0c-0.1,0-0.1-0.1-0.1-0.2v-3l3.7,0.2v3c0,0.2-0.1,0.2-0.4,0.2l-0.4,0c-0.4,0-0.4,0.1-0.4,0.4l-0.1,0.4
			c0,0,0,0.1,0,0.1c0,0.1,0,0.1,0.2,0.1h3.7c0.5,0,0.6,0,0.7-0.4l0.1-0.8C81.6,364.3,81.6,364.2,81.5,364.2z M93,364.2l-0.6,0.1
			c-0.3,0-0.4-0.1-0.5-0.4l-3.1-8c-0.1-0.3-0.2-0.4-0.4-0.4h-2.5c-0.5,0-0.6,0-0.7,0.4l-0.1,0.8c0,0,0,0,0,0.1
			c0,0.1,0.1,0.1,0.2,0.1l0.7-0.1H86c0.1,0,0.1,0,0.1,0.1c0,0,0,0.1,0,0.1l-0.1,0.2h0l-2.5,6.8c-0.2,0.5-0.3,0.5-0.6,0.6l-0.5,0.1
			c-0.1,0-0.2,0-0.3,0.3l-0.1,0.4c0,0.1,0,0.1,0,0.1c0,0.1,0.1,0.2,0.3,0.2h3.1c0.2,0,0.4,0,0.4-0.3l0.1-0.9c0-0.1-0.1-0.1-0.2-0.1
			l-0.6,0.1c0,0-0.1,0-0.1,0c-0.2,0-0.2-0.1-0.2-0.2c0-0.1,0-0.2,0.1-0.3l0.5-1.3h3.5l0.7,1.7c0,0.1,0,0.1,0,0.2
			c0,0.1-0.1,0.1-0.3,0.2l-0.6,0.1c-0.1,0-0.2,0.1-0.2,0.2l-0.1,0.3c0,0.1,0,0.2,0,0.3c0,0.1,0.1,0.2,0.3,0.2h4
			c0.3,0,0.4-0.1,0.4-0.3l0.2-1C93.2,364.2,93.1,364.2,93,364.2z M85.8,361.3l1.3-3.6l1.4,3.6H85.8z M108.2,364.2l-0.9,0.1
			c0,0-0.1,0-0.1,0c-0.1,0-0.1,0-0.1-0.1v-7.5c0-0.1,0.1-0.2,0.2-0.2l0.5-0.1c0.2,0,0.2-0.1,0.3-0.3l0.1-0.3c0-0.1,0-0.1,0-0.1
			c0-0.1-0.1-0.2-0.3-0.2h-2.3c-1.1,0-1.1,0.3-1.7,1.7l-2.8,6.4l-2.8-6.7c-0.5-1.2-0.5-1.4-1.3-1.4h-2.5c-0.5,0-0.6,0-0.6,0.4
			l-0.1,0.8c0,0,0,0,0,0.1c0,0.1,0.1,0.1,0.2,0.1l0.9-0.1h0.1c0.1,0,0.1,0.1,0.1,0.2v7.3c0,0.1-0.2,0.2-0.4,0.2l-0.4,0
			c-0.3,0-0.4,0.1-0.4,0.4l-0.1,0.5c0,0,0,0.1,0,0.1c0,0.1,0,0.1,0.2,0.1h2.8c0.5,0,0.6,0,0.7-0.4l0.1-0.9c0-0.1,0-0.1-0.1-0.1
			l-0.8,0.1c0,0-0.1,0-0.1,0c-0.1,0-0.1-0.1-0.1-0.2v-6.4l3.2,7.5c0.1,0.3,0.2,0.4,0.4,0.4h1.4c0.3,0,0.4-0.1,0.5-0.4l3.3-7.5v6.7
			c0,0.2-0.1,0.2-0.4,0.2l-0.3,0c-0.4,0-0.4,0.1-0.4,0.4l-0.1,0.4c0,0,0,0.1,0,0.1c0,0.1,0.1,0.1,0.2,0.1h3.6c0.5,0,0.6,0,0.7-0.4
			l0.1-0.8C108.3,364.3,108.3,364.2,108.2,364.2z M123.4,364.2l-0.9,0.1c0,0-0.1,0-0.1,0c-0.1,0-0.1,0-0.1-0.1v-7.5
			c0-0.1,0.1-0.2,0.2-0.2l0.5-0.1c0.2,0,0.2-0.1,0.3-0.3l0.1-0.3c0-0.1,0-0.1,0-0.1c0-0.1-0.1-0.2-0.3-0.2h-2.3
			c-1.1,0-1.1,0.3-1.7,1.7l-2.8,6.4l-2.8-6.7c-0.5-1.2-0.5-1.4-1.3-1.4h-2.5c-0.5,0-0.6,0-0.6,0.4l-0.1,0.8c0,0,0,0,0,0.1
			c0,0.1,0.1,0.1,0.2,0.1l0.9-0.1h0.1c0.1,0,0.1,0.1,0.1,0.2v7.3c0,0.1-0.2,0.2-0.4,0.2l-0.4,0c-0.3,0-0.4,0.1-0.4,0.4l-0.1,0.5
			c0,0,0,0.1,0,0.1c0,0.1,0,0.1,0.2,0.1h2.8c0.5,0,0.6,0,0.7-0.4l0.1-0.9c0-0.1,0-0.1-0.1-0.1l-0.8,0.1c0,0-0.1,0-0.1,0
			c-0.1,0-0.1-0.1-0.1-0.2v-6.4l3.2,7.5c0.1,0.3,0.2,0.4,0.4,0.4h1.4c0.3,0,0.4-0.1,0.5-0.4l3.3-7.5v6.7c0,0.2-0.1,0.2-0.4,0.2
			l-0.3,0c-0.4,0-0.4,0.1-0.4,0.4l-0.1,0.4c0,0,0,0.1,0,0.1c0,0.1,0.1,0.1,0.2,0.1h3.6c0.5,0,0.6,0,0.7-0.4l0.1-0.8
			C123.6,364.3,123.5,364.2,123.4,364.2z M134.9,364.2l-0.6,0.1c-0.3,0-0.4-0.1-0.5-0.4l-3.1-8c-0.1-0.3-0.2-0.4-0.4-0.4h-2.5
			c-0.5,0-0.6,0-0.7,0.4l-0.1,0.8c0,0,0,0,0,0.1c0,0.1,0.1,0.1,0.2,0.1l0.7-0.1h0.1c0.1,0,0.1,0,0.1,0.1c0,0,0,0.1,0,0.1l-0.1,0.2h0
			l-2.5,6.8c-0.2,0.5-0.3,0.5-0.6,0.6l-0.5,0.1c-0.1,0-0.2,0-0.3,0.3l-0.1,0.4c0,0.1,0,0.1,0,0.1c0,0.1,0.1,0.2,0.3,0.2h3.1
			c0.2,0,0.4,0,0.4-0.3l0.1-0.9c0-0.1-0.1-0.1-0.2-0.1l-0.6,0.1c0,0-0.1,0-0.1,0c-0.2,0-0.2-0.1-0.2-0.2c0-0.1,0-0.2,0.1-0.3
			l0.5-1.3h3.5l0.7,1.7c0,0.1,0,0.1,0,0.2c0,0.1-0.1,0.1-0.3,0.2l-0.6,0.1c-0.1,0-0.2,0.1-0.2,0.2l-0.1,0.3c0,0.1,0,0.2,0,0.3
			c0,0.1,0.1,0.2,0.3,0.2h4c0.3,0,0.4-0.1,0.4-0.3l0.2-1C135.1,364.2,135.1,364.2,134.9,364.2z M127.7,361.3l1.3-3.6l1.4,3.6H127.7z
			 M140.7,355.3c-1.2,0-3.4,0.1-4.2,0.1c-0.4,0-0.6,0.1-0.7,0.4l-0.1,0.8c0,0,0,0,0,0.1c0,0.1,0.1,0.1,0.2,0.1l0.7-0.1h0.1
			c0.1,0,0.1,0,0.1,0.1v7.5c0,0.1-0.1,0.2-0.4,0.2l-0.4,0c-0.3,0.1-0.4,0.1-0.4,0.4l-0.1,0.4c0,0,0,0.1,0,0.1c0,0.1,0,0.1,0.2,0.1
			c1.6,0,3.1,0.1,4.6,0.1c3.2,0,5.4-1.6,5.4-5.3C145.7,356.2,143.1,355.3,140.7,355.3z M142.1,364.2c-0.7,0.3-1.3,0.4-1.8,0.4
			c-1.2,0-1.3-0.2-1.3-0.4v-7.2c0-0.2,0.1-0.3,0.3-0.3l1.1-0.1c1.5,0,2.8,1.1,2.8,3.8C143.2,362.2,142.8,363.4,142.1,364.2z
			 M154.3,364.2l-0.9,0.1c0,0-0.1,0-0.1,0c-0.1,0-0.1,0-0.1-0.1v-7.5c0-0.1,0.1-0.1,0.4-0.2l0.3,0c0.3,0,0.4-0.1,0.4-0.4l0.1-0.4
			c0-0.1,0-0.1-0.2-0.1h-3.5c-0.5,0-0.6,0-0.6,0.4l-0.1,0.8c0,0,0,0,0,0.1c0,0.1,0.1,0.1,0.1,0.1l0.8-0.1h0.1c0.1,0,0.1,0.1,0.1,0.2
			v7.4c0,0.1-0.2,0.2-0.4,0.2l-0.4,0c-0.4,0-0.4,0.1-0.4,0.4l-0.1,0.4c0,0,0,0.1,0,0.1c0,0.1,0,0.1,0.2,0.1h3.7c0.5,0,0.6,0,0.7-0.4
			l0.1-0.8C154.5,364.3,154.4,364.2,154.3,364.2z M159.9,359.5c-1.2-0.1-2.6,0-2.6-1.4c0-0.5,0.2-0.9,0.4-1.1
			c0.5-0.1,1.2-0.2,1.9-0.2c0.8,0,1.5,0.1,1.9,0.2c0.1,0,0.2,0,0.2,0c0.1,0,0.2-0.1,0.2-0.3l0.2-0.8c0-0.1,0-0.2,0-0.2
			c0-0.1-0.1-0.1-0.3-0.2c-0.4-0.1-1.3-0.2-2.3-0.2c-2.8,0-4.4,0.4-4.4,2.8c0,2.7,1.5,3,2.9,3.2c1.5,0.2,2.5,0,2.5,1.4
			c0,0.4-0.1,0.7-0.3,1.2c-0.4,0.2-1,0.4-1.8,0.4c-0.6,0-1.5,0-2.5-0.3c-0.3-0.1-0.5-0.1-0.6-0.1c-0.2,0-0.2,0-0.2,0.2
			c0,0,0,0.1,0,0.1l0.1,0.9c0,0.2,0.1,0.3,0.4,0.4c0.5,0.2,1.6,0.3,2.9,0.3c2.4,0,4.1-0.7,4.1-3.2
			C162.7,360.2,161.3,359.6,159.9,359.5z M177.1,364.2l-0.9,0.1c0,0-0.1,0-0.1,0c-0.1,0-0.1-0.1-0.1-0.2v-7.4c0-0.1,0.1-0.1,0.4-0.2
			l0.3,0c0.3,0,0.4-0.1,0.4-0.4l0.1-0.4c0-0.1,0-0.1-0.2-0.1h-3.5c-0.5,0-0.6,0-0.6,0.4l-0.1,0.8c0,0,0,0,0,0.1
			c0,0.1,0.1,0.1,0.1,0.1l0.8-0.1h0.1c0.1,0,0.1,0,0.1,0.1v2.8l-3.7,0.1v-3.2c0-0.1,0.1-0.1,0.4-0.2l0.3,0c0.3,0,0.4-0.1,0.4-0.4
			l0-0.4c0,0,0-0.1,0-0.1c0-0.1,0-0.1-0.2-0.1h-3.5c-0.5,0-0.6,0-0.6,0.4l-0.1,0.8c0,0,0,0,0,0.1c0,0.1,0.1,0.1,0.1,0.1l0.8-0.1h0.1
			c0.1,0,0.1,0.1,0.1,0.2v7.4c0,0.1-0.2,0.2-0.4,0.2l-0.4,0c-0.4,0-0.4,0.1-0.4,0.4l-0.1,0.4c0,0,0,0.1,0,0.1c0,0.1,0,0.1,0.2,0.1
			h3.7c0.5,0,0.6,0,0.7-0.4l0.1-0.8c0-0.1,0-0.1-0.1-0.1l-0.9,0.1c0,0-0.1,0-0.1,0c-0.1,0-0.1-0.1-0.1-0.2v-3l3.7,0.2v3
			c0,0.2-0.1,0.2-0.4,0.2l-0.4,0c-0.4,0-0.4,0.1-0.4,0.4l-0.1,0.4c0,0,0,0.1,0,0.1c0,0.1,0,0.1,0.2,0.1h3.7c0.5,0,0.6,0,0.7-0.4
			l0.1-0.8C177.3,364.3,177.2,364.2,177.1,364.2z M182.3,364.2l-0.9,0.1c0,0-0.1,0-0.1,0c-0.1,0-0.1,0-0.1-0.1v-7.5
			c0-0.1,0.1-0.1,0.4-0.2l0.3,0c0.3,0,0.4-0.1,0.4-0.4l0.1-0.4c0-0.1,0-0.1-0.2-0.1h-3.5c-0.5,0-0.6,0-0.6,0.4l-0.1,0.8
			c0,0,0,0,0,0.1c0,0.1,0.1,0.1,0.1,0.1l0.8-0.1h0.1c0.1,0,0.1,0.1,0.1,0.2v7.4c0,0.1-0.2,0.2-0.4,0.2l-0.4,0
			c-0.4,0-0.4,0.1-0.4,0.4l-0.1,0.4c0,0,0,0.1,0,0.1c0,0.1,0,0.1,0.2,0.1h3.7c0.5,0,0.6,0,0.7-0.4l0.1-0.8
			C182.4,364.3,182.4,364.2,182.3,364.2z M187.9,359.5c-1.2-0.1-2.6,0-2.6-1.4c0-0.5,0.2-0.9,0.4-1.1c0.5-0.1,1.2-0.2,1.9-0.2
			s1.5,0.1,1.9,0.2c0.1,0,0.2,0,0.2,0c0.1,0,0.2-0.1,0.2-0.3l0.2-0.8c0-0.1,0-0.2,0-0.2c0-0.1-0.1-0.1-0.3-0.2
			c-0.4-0.1-1.3-0.2-2.3-0.2c-2.8,0-4.4,0.4-4.4,2.8c0,2.7,1.5,3,2.9,3.2c1.5,0.2,2.5,0,2.5,1.4c0,0.4-0.1,0.7-0.3,1.2
			c-0.4,0.2-1,0.4-1.8,0.4c-0.6,0-1.5,0-2.5-0.3c-0.3-0.1-0.5-0.1-0.6-0.1c-0.2,0-0.2,0-0.2,0.2c0,0,0,0.1,0,0.1l0.1,0.9
			c0,0.2,0.1,0.3,0.4,0.4c0.5,0.2,1.6,0.3,2.9,0.3c2.4,0,4.1-0.7,4.1-3.2C190.7,360.2,189.3,359.6,187.9,359.5z M209.3,364.2
			l-0.9,0.1c0,0-0.1,0-0.1,0c-0.1,0-0.1,0-0.1-0.1v-7.5c0-0.1,0.1-0.2,0.2-0.2l0.5-0.1c0.2,0,0.2-0.1,0.3-0.3l0.1-0.3
			c0-0.1,0-0.1,0-0.1c0-0.1-0.1-0.2-0.3-0.2h-2.3c-1.1,0-1.1,0.3-1.7,1.7l-2.8,6.4l-2.8-6.7c-0.5-1.2-0.5-1.4-1.3-1.4h-2.5
			c-0.5,0-0.6,0-0.6,0.4l-0.1,0.8c0,0,0,0,0,0.1c0,0.1,0.1,0.1,0.2,0.1l0.9-0.1h0.1c0.1,0,0.1,0.1,0.1,0.2v7.3
			c0,0.1-0.2,0.2-0.4,0.2l-0.4,0c-0.3,0-0.4,0.1-0.4,0.4l-0.1,0.5c0,0,0,0.1,0,0.1c0,0.1,0,0.1,0.2,0.1h2.8c0.5,0,0.6,0,0.7-0.4
			l0.1-0.9c0-0.1,0-0.1-0.1-0.1l-0.8,0.1c0,0-0.1,0-0.1,0c-0.1,0-0.1-0.1-0.1-0.2v-6.4l3.2,7.5c0.1,0.3,0.2,0.4,0.4,0.4h1.4
			c0.3,0,0.4-0.1,0.5-0.4l3.3-7.5v6.7c0,0.2-0.1,0.2-0.4,0.2l-0.3,0c-0.4,0-0.4,0.1-0.4,0.4l-0.1,0.4c0,0,0,0.1,0,0.1
			c0,0.1,0.1,0.1,0.2,0.1h3.6c0.5,0,0.6,0,0.7-0.4l0.1-0.8C209.4,364.3,209.4,364.2,209.3,364.2z M218.3,362.8l-1.2-0.1
			c0,0-0.1,0-0.1,0c-0.1,0-0.1,0-0.1,0.2l-0.3,1.3c0,0.1,0,0.1-0.2,0.1l-2.9,0.2c-0.1,0-0.2-0.1-0.2-0.2V361l2.6,0.3
			c0.1,0,0.2,0,0.2-0.1l0.2-1.3c0-0.1-0.1-0.2-0.2-0.2l-2.8,0.1V357c0-0.2,0.1-0.3,0.2-0.3h2.8c0.1,0,0.1,0,0.1,0.1c0,0,0,0,0,0.1
			l-0.3,1c0,0.1,0,0.1,0,0.1c0,0.1,0,0.1,0.2,0.1l1,0.1c0.1,0,0.1,0,0.1,0c0.2,0,0.3-0.1,0.3-0.4l0.4-2c0,0,0-0.1,0-0.1
			c0-0.3-0.3-0.3-0.4-0.3h-7.3c-0.3,0-0.4,0.1-0.4,0.3l-0.1,0.9c0,0,0,0.1,0,0.1c0,0.1,0.1,0.1,0.2,0.1l0.8-0.1c0.1,0,0.1,0,0.1,0.1
			v7.5c0,0.2-0.1,0.2-0.4,0.2l-0.4,0c-0.3,0.1-0.3,0.1-0.4,0.4l-0.1,0.4c0,0,0,0,0,0.1c0,0.1,0.1,0.1,0.2,0.1h7.4
			c0.2,0,0.4-0.1,0.4-0.3l0.4-2.1c0-0.1,0-0.2,0-0.2C218.5,362.8,218.4,362.8,218.3,362.8z M223.9,359.5c-1.2-0.1-2.6,0-2.6-1.4
			c0-0.5,0.2-0.9,0.4-1.1c0.5-0.1,1.2-0.2,1.9-0.2c0.8,0,1.5,0.1,1.9,0.2c0.1,0,0.2,0,0.2,0c0.1,0,0.2-0.1,0.2-0.3l0.2-0.8
			c0-0.1,0-0.2,0-0.2c0-0.1-0.1-0.1-0.3-0.2c-0.4-0.1-1.3-0.2-2.3-0.2c-2.8,0-4.4,0.4-4.4,2.8c0,2.7,1.5,3,2.9,3.2
			c1.5,0.2,2.5,0,2.5,1.4c0,0.4-0.1,0.7-0.3,1.2c-0.4,0.2-1,0.4-1.8,0.4c-0.6,0-1.5,0-2.5-0.3c-0.3-0.1-0.5-0.1-0.6-0.1
			c-0.2,0-0.2,0-0.2,0.2c0,0,0,0.1,0,0.1l0.1,0.9c0,0.2,0.1,0.3,0.4,0.4c0.5,0.2,1.6,0.3,2.9,0.3c2.4,0,4.1-0.7,4.1-3.2
			C226.7,360.2,225.3,359.6,223.9,359.5z M232.2,359.5c-1.2-0.1-2.6,0-2.6-1.4c0-0.5,0.2-0.9,0.4-1.1c0.5-0.1,1.2-0.2,1.9-0.2
			c0.8,0,1.5,0.1,1.9,0.2c0.1,0,0.2,0,0.2,0c0.1,0,0.2-0.1,0.2-0.3l0.2-0.8c0-0.1,0-0.2,0-0.2c0-0.1-0.1-0.1-0.3-0.2
			c-0.4-0.1-1.3-0.2-2.3-0.2c-2.8,0-4.4,0.4-4.4,2.8c0,2.7,1.5,3,2.9,3.2c1.5,0.2,2.5,0,2.5,1.4c0,0.4-0.1,0.7-0.3,1.2
			c-0.4,0.2-1,0.4-1.8,0.4c-0.6,0-1.5,0-2.5-0.3c-0.3-0.1-0.5-0.1-0.6-0.1c-0.2,0-0.2,0-0.2,0.2c0,0,0,0.1,0,0.1l0.1,0.9
			c0,0.2,0.1,0.3,0.4,0.4c0.5,0.2,1.6,0.3,2.9,0.3c2.4,0,4.1-0.7,4.1-3.2C235.1,360.2,233.6,359.6,232.2,359.5z M244,362.8l-1.2-0.1
			c0,0-0.1,0-0.1,0c-0.1,0-0.1,0-0.1,0.2l-0.3,1.3c0,0.1,0,0.1-0.2,0.1l-2.9,0.2c-0.1,0-0.2-0.1-0.2-0.2V361l2.6,0.3
			c0.1,0,0.2,0,0.2-0.1l0.2-1.3c0-0.1-0.1-0.2-0.2-0.2l-2.8,0.1V357c0-0.2,0.1-0.3,0.2-0.3h2.8c0.1,0,0.1,0,0.1,0.1c0,0,0,0,0,0.1
			l-0.3,1c0,0.1,0,0.1,0,0.1c0,0.1,0,0.1,0.2,0.1l1,0.1c0.1,0,0.1,0,0.1,0c0.2,0,0.3-0.1,0.3-0.4l0.4-2c0,0,0-0.1,0-0.1
			c0-0.3-0.3-0.3-0.4-0.3h-7.3c-0.3,0-0.4,0.1-0.4,0.3l-0.1,0.9c0,0,0,0.1,0,0.1c0,0.1,0.1,0.1,0.2,0.1l0.8-0.1c0.1,0,0.1,0,0.1,0.1
			v7.5c0,0.2-0.1,0.2-0.4,0.2l-0.4,0c-0.3,0.1-0.3,0.1-0.4,0.4l-0.1,0.4c0,0,0,0,0,0.1c0,0.1,0.1,0.1,0.2,0.1h7.4
			c0.2,0,0.4-0.1,0.4-0.3l0.4-2.1c0-0.1,0-0.2,0-0.2C244.2,362.8,244.1,362.8,244,362.8z M255.2,355.5h-2.8c-0.5,0-0.6,0-0.6,0.4
			l-0.1,0.8c0,0,0,0,0,0.1c0,0.1,0.1,0.1,0.1,0.1l0.9-0.1h0.1c0.1,0,0.1,0.1,0.1,0.2v5.2l-5.1-6.2c-0.3-0.4-0.6-0.4-0.7-0.4h-1.5
			c-0.5,0-0.6,0-0.6,0.4l-0.1,0.8c0,0,0,0,0,0.1c0,0.1,0.1,0.1,0.2,0.1l0.9-0.1h0.1c0.1,0,0.1,0.1,0.1,0.2v7.3
			c0,0.2-0.1,0.2-0.4,0.2l-0.4,0c-0.3,0-0.4,0.1-0.4,0.4l-0.1,0.5c0,0,0,0.1,0,0.1c0,0.1,0,0.1,0.2,0.1h2.8c0.5,0,0.6,0,0.7-0.4
			l0.1-0.9c0-0.1,0-0.1-0.1-0.1l-0.8,0.1c0,0-0.1,0-0.1,0c-0.1,0-0.1,0-0.1-0.1v-5.3l5.3,6.5c0.1,0.2,0.3,0.2,0.5,0.2h0.9
			c0.1,0,0.2,0,0.2-0.1v-8.7c0-0.1,0.1-0.2,0.4-0.2l0.4,0c0.3,0,0.4-0.1,0.4-0.4l0.1-0.5c0,0,0,0,0-0.1
			C255.4,355.5,255.3,355.5,255.2,355.5z M264.9,360.2h-2.3c-0.5,0-0.6,0-0.7,0.4l-0.1,0.8c0,0,0,0,0,0.1c0,0.1,0.1,0.1,0.2,0.1
			l0.7-0.1c0.2,0,0.2,0,0.2,0.2v2.3c0,0.2,0,0.2-0.2,0.2c-0.2,0.1-0.8,0.1-1.2,0.1c-0.7,0-2.7-0.1-2.7-3.7c0-1.3,0.3-2.8,1.1-3.5
			c0.7-0.2,1.1-0.3,2.4-0.3c0.7,0,1.5,0.1,2.1,0.2c0.1,0,0.2,0,0.2,0c0.1,0,0.2,0,0.2-0.2l0.2-0.9c0,0,0-0.1,0-0.1
			c0-0.1-0.1-0.2-0.2-0.2c-0.3-0.1-1.5-0.3-3-0.3c-3.5,0-5.6,1.2-5.6,5.2c0,4.7,3.3,5.2,5.2,5.2c1.4,0,2.8-0.3,3.5-0.5
			c0.2-0.1,0.2-0.1,0.2-0.3v-4.5C265.1,360.2,265.1,360.2,264.9,360.2z M274.8,362.8l-1.2-0.1c0,0-0.1,0-0.1,0c-0.1,0-0.1,0-0.1,0.2
			l-0.3,1.3c0,0.1,0,0.1-0.2,0.1l-2.9,0.2c-0.1,0-0.2-0.1-0.2-0.2V361l2.6,0.3c0.1,0,0.2,0,0.2-0.1l0.2-1.3c0-0.1-0.1-0.2-0.2-0.2
			l-2.8,0.1V357c0-0.2,0.1-0.3,0.2-0.3h2.8c0.1,0,0.1,0,0.1,0.1c0,0,0,0,0,0.1l-0.3,1c0,0.1,0,0.1,0,0.1c0,0.1,0,0.1,0.2,0.1l1,0.1
			c0.1,0,0.1,0,0.1,0c0.2,0,0.3-0.1,0.3-0.4l0.4-2c0,0,0-0.1,0-0.1c0-0.3-0.3-0.3-0.4-0.3h-7.3c-0.3,0-0.4,0.1-0.4,0.3l-0.1,0.9
			c0,0,0,0.1,0,0.1c0,0.1,0.1,0.1,0.2,0.1l0.8-0.1c0.1,0,0.1,0,0.1,0.1v7.5c0,0.2-0.1,0.2-0.4,0.2l-0.4,0c-0.3,0.1-0.3,0.1-0.4,0.4
			l-0.1,0.4c0,0,0,0,0,0.1c0,0.1,0.1,0.1,0.2,0.1h7.4c0.2,0,0.4-0.1,0.4-0.3l0.4-2.1c0-0.1,0-0.2,0-0.2
			C275,362.8,274.9,362.8,274.8,362.8z M285.1,364.2l-0.7,0.1h-0.1c-0.2,0-0.4-0.2-0.7-0.6l-1.2-2.2c1.4-0.4,2.2-1.4,2.2-3
			c0-1.7-1.3-3-4.4-3h-3.8c-0.5,0-0.6,0-0.7,0.4l-0.1,0.8c0,0,0,0,0,0.1c0,0.1,0.1,0.1,0.2,0.1l0.9-0.1h0.1c0.1,0,0.1,0,0.1,0.1
			l0,7.5c0,0.2-0.1,0.2-0.4,0.2l-0.4,0c-0.4,0-0.4,0.1-0.4,0.4l-0.1,0.4c0,0,0,0.1,0,0.1c0,0.1,0,0.1,0.2,0.1h3.7
			c0.5,0,0.6,0,0.7-0.4l0.1-0.8c0-0.1,0-0.1-0.1-0.1l-0.9,0.1c0,0-0.1,0-0.1,0c-0.1,0-0.1-0.1-0.1-0.2v-2.4h1.2l1.6,2.8
			c0.4,0.7,1,1.1,1.8,1.1c0.7,0,1.5,0,1.6-0.3l0.2-1C285.3,364.2,285.2,364.2,285.1,364.2z M281.6,360.2c-0.4,0.2-0.9,0.3-1.5,0.3
			h-0.9c-0.2,0-0.2,0-0.2-0.2v-3.6c0,0,0-0.1,0-0.1h1.2c1.2,0,2,0.6,2,1.8C282.2,359.2,282,359.9,281.6,360.2z M46.3,338.5l0.2-1
			c0-0.1,0-0.1,0.1-0.1h1.6c0.1,0,0.1,0.1,0.2,0.2v8c0,0.2-0.1,0.2-0.4,0.3l-0.4,0c-0.4,0-0.4,0.1-0.4,0.4l-0.1,0.4c0,0,0,0.1,0,0.1
			c0,0.1,0,0.1,0.2,0.1h3.9c0.5,0,0.6,0,0.7-0.4l0.1-0.9c0-0.1,0-0.1-0.1-0.1l-0.9,0.1c0,0-0.1,0-0.1,0c-0.1,0-0.1-0.1-0.1-0.2v-7.7
			c0-0.1,0-0.2,0.2-0.2h1.5c0.1,0,0.1,0,0.1,0.1l0.2,1c0,0.1,0.1,0.2,0.1,0.2c0,0,0,0,0.1,0l1.2-0.1c0.1,0,0.2,0,0.2-0.2
			c0-0.1,0-0.1,0-0.3l-0.4-1.7c0-0.2-0.3-0.3-0.5-0.3h-8.1c-0.2,0-0.4,0.1-0.5,0.3l-0.3,1.7c0,0.1,0,0.2,0,0.3
			c0,0.1,0.1,0.2,0.2,0.2l1.3,0.1C46.3,338.7,46.3,338.7,46.3,338.5z M62.6,345.9l-0.4,0c-0.4,0-0.4,0.1-0.4,0.4l-0.1,0.4
			c0,0,0,0.1,0,0.1c0,0.1,0,0.1,0.2,0.1h3.9c0.5,0,0.6,0,0.7-0.4l0.1-0.9c0-0.1,0-0.1-0.1-0.1l-0.9,0.1c0,0-0.1,0-0.1,0
			c-0.1,0-0.1-0.1-0.1-0.2v-7.9c0-0.1,0.1-0.1,0.4-0.2l0.3,0c0.3,0,0.4-0.1,0.4-0.4l0.1-0.5c0-0.1,0-0.1-0.2-0.1h-3.7
			c-0.5,0-0.6,0-0.7,0.4l-0.1,0.8c0,0,0,0,0,0.1c0,0.1,0.1,0.1,0.1,0.1l0.8-0.1h0.1c0.1,0,0.1,0,0.1,0.1v3l-3.9,0.1v-3.4
			c0-0.1,0.1-0.1,0.4-0.2l0.3,0c0.4,0,0.4-0.1,0.4-0.4l0-0.4c0,0,0-0.1,0-0.1c0-0.1,0-0.1-0.2-0.1h-3.7c-0.5,0-0.6,0-0.7,0.4
			l-0.1,0.8c0,0,0,0,0,0.1c0,0.1,0.1,0.1,0.1,0.1l0.8-0.1h0.1c0.1,0,0.1,0.1,0.1,0.2v7.9c0,0.1-0.2,0.2-0.4,0.2l-0.4,0
			c-0.4,0-0.4,0.1-0.4,0.4l-0.1,0.4c0,0,0,0.1,0,0.1c0,0.1,0,0.1,0.2,0.1h3.9c0.5,0,0.6,0,0.7-0.4l0.1-0.9c0-0.1,0-0.1-0.1-0.1
			l-0.9,0.1c0,0-0.1,0-0.1,0c-0.1,0-0.1-0.1-0.1-0.2v-3.2l3.9,0.2v3.2C63,345.8,62.9,345.8,62.6,345.9z M68.5,345.9l-0.4,0
			c-0.3,0.1-0.3,0.1-0.4,0.4l-0.1,0.4c0,0,0,0,0,0.1c0,0.1,0.1,0.1,0.2,0.1h7.9c0.2,0,0.4-0.1,0.5-0.3l0.4-2.2c0-0.1,0-0.2,0-0.3
			c0-0.1-0.1-0.2-0.2-0.2l-1.2-0.1c0,0-0.1,0-0.1,0c-0.1,0-0.1,0-0.1,0.2l-0.3,1.3c0,0.1,0,0.1-0.2,0.1l-3.1,0.2
			c-0.1,0-0.2-0.1-0.2-0.2V342l2.8,0.3c0.1,0,0.2,0,0.2-0.1l0.2-1.4c0-0.1-0.1-0.2-0.2-0.2l-3,0.1v-2.9c0-0.2,0.1-0.3,0.2-0.3h3
			c0.1,0,0.1,0,0.1,0.1c0,0,0,0,0,0.1l-0.3,1.1c0,0.1,0,0.1,0,0.1c0,0.1,0,0.1,0.2,0.1l1,0.1c0.1,0,0.1,0,0.1,0
			c0.2,0,0.3-0.1,0.4-0.4l0.4-2.2c0,0,0-0.1,0-0.1c0-0.3-0.3-0.3-0.4-0.3h-7.8c-0.3,0-0.4,0.1-0.4,0.3l-0.1,1c0,0,0,0.1,0,0.1
			c0,0.1,0.1,0.1,0.2,0.1l0.8-0.1c0.1,0,0.1,0,0.1,0.1v7.9C68.9,345.8,68.8,345.8,68.5,345.9z M82.4,346.5l0.1-0.9
			c0-0.1,0-0.1-0.1-0.1l-0.9,0.1c0,0-0.1,0-0.1,0c-0.1,0-0.1-0.1-0.1-0.2v-2.5h1.3l1.7,3c0.4,0.8,1,1.2,1.9,1.2c0.7,0,1.6,0,1.7-0.3
			l0.2-1.1c0-0.1-0.1-0.1-0.2-0.1l-0.8,0.1h-0.1c-0.3,0-0.4-0.2-0.7-0.7l-1.3-2.3c1.5-0.4,2.4-1.5,2.4-3.2c0-1.8-1.3-3.2-4.7-3.2
			h-4.1c-0.5,0-0.6,0-0.7,0.4l-0.1,0.8c0,0,0,0,0,0.1c0,0.1,0.1,0.1,0.2,0.1l0.9-0.1h0.1c0.1,0,0.1,0,0.1,0.1l0,8
			c0,0.2-0.1,0.2-0.4,0.3l-0.4,0c-0.4,0-0.4,0.1-0.4,0.4l-0.1,0.4c0,0,0,0.1,0,0.1c0,0.1,0,0.1,0.2,0.1h3.9
			C82.3,346.9,82.4,346.9,82.4,346.5z M81.3,337.5C81.3,337.4,81.3,337.4,81.3,337.5l1.3-0.1c1.3,0,2.1,0.6,2.1,1.9
			c0,0.9-0.2,1.6-0.6,1.9c-0.5,0.2-1,0.3-1.6,0.3h-1c-0.2,0-0.2,0-0.2-0.2V337.5z M89.8,345.9l-0.4,0c-0.3,0.1-0.3,0.1-0.4,0.4
			l-0.1,0.4c0,0,0,0,0,0.1c0,0.1,0.1,0.1,0.2,0.1H97c0.2,0,0.4-0.1,0.5-0.3l0.4-2.2c0-0.1,0-0.2,0-0.3c0-0.1-0.1-0.2-0.2-0.2
			l-1.2-0.1c0,0-0.1,0-0.1,0c-0.1,0-0.1,0-0.1,0.2l-0.3,1.3c0,0.1,0,0.1-0.2,0.1l-3.1,0.2c-0.1,0-0.2-0.1-0.2-0.2V342l2.8,0.3
			c0.1,0,0.2,0,0.2-0.1l0.2-1.4c0-0.1-0.1-0.2-0.2-0.2l-3,0.1v-2.9c0-0.2,0.1-0.3,0.2-0.3h3c0.1,0,0.1,0,0.1,0.1c0,0,0,0,0,0.1
			l-0.3,1.1c0,0.1,0,0.1,0,0.1c0,0.1,0,0.1,0.2,0.1l1,0.1c0.1,0,0.1,0,0.1,0c0.2,0,0.3-0.1,0.4-0.4l0.4-2.2c0,0,0-0.1,0-0.1
			c0-0.3-0.3-0.3-0.4-0.3h-7.8c-0.3,0-0.4,0.1-0.4,0.3l-0.1,1c0,0,0,0.1,0,0.1c0,0.1,0.1,0.1,0.2,0.1l0.8-0.1c0.1,0,0.1,0,0.1,0.1
			v7.9C90.2,345.8,90.1,345.8,89.8,345.9z M103.2,346.9h3.9c0.5,0,0.6,0,0.7-0.4l0.1-0.9c0-0.1,0-0.1-0.1-0.1l-0.9,0.1
			c0,0-0.1,0-0.1,0c-0.1,0-0.1,0-0.1-0.1v-8c0-0.1,0.1-0.1,0.4-0.2l0.3,0c0.3,0,0.4-0.1,0.4-0.4l0.1-0.5c0-0.1,0-0.1-0.2-0.1H104
			c-0.5,0-0.6,0-0.7,0.4l-0.1,0.8c0,0,0,0,0,0.1c0,0.1,0.1,0.1,0.1,0.1l0.8-0.1h0.1c0.1,0,0.1,0.1,0.1,0.2v7.9
			c0,0.1-0.2,0.2-0.4,0.2l-0.4,0c-0.4,0-0.4,0.1-0.4,0.4l-0.1,0.4c0,0,0,0.1,0,0.1C103,346.9,103.1,346.9,103.2,346.9z M112.8,345.5
			c-0.6,0-1.6,0-2.7-0.3c-0.3-0.1-0.5-0.1-0.7-0.1c-0.2,0-0.2,0-0.2,0.2c0,0,0,0.1,0,0.1l0.1,0.9c0,0.2,0.1,0.3,0.4,0.4
			c0.6,0.2,1.7,0.3,3.1,0.3c2.6,0,4.4-0.7,4.4-3.4c0-2.5-1.5-3.1-3-3.3c-1.3-0.1-2.7,0-2.7-1.5c0-0.5,0.2-0.9,0.4-1.2
			c0.5-0.1,1.2-0.2,2-0.2c0.8,0,1.6,0.1,2.1,0.2c0.1,0,0.2,0,0.2,0c0.1,0,0.2-0.1,0.2-0.3l0.2-0.9c0-0.1,0-0.2,0-0.2
			c0-0.1-0.1-0.1-0.3-0.2c-0.4-0.1-1.4-0.2-2.4-0.2c-3,0-4.6,0.5-4.6,3c0,2.9,1.6,3.2,3.1,3.4c1.6,0.2,2.6,0,2.6,1.5
			c0,0.4-0.1,0.8-0.3,1.2C114.2,345.4,113.7,345.5,112.8,345.5z M130.7,346.7c0.1,0.2,0.4,0.2,0.6,0.2h1c0.1,0,0.2,0,0.2-0.1v-9.2
			c0-0.1,0.1-0.2,0.4-0.2l0.4,0c0.4,0,0.4-0.1,0.4-0.4l0.1-0.5c0,0,0,0,0-0.1c0-0.1-0.1-0.1-0.2-0.1h-2.9c-0.5,0-0.6,0-0.7,0.4
			l-0.1,0.8c0,0,0,0,0,0.1c0,0.1,0.1,0.1,0.1,0.1l0.9-0.1h0.1c0.1,0,0.1,0.1,0.1,0.2v5.5l-5.5-6.6c-0.3-0.4-0.6-0.5-0.8-0.5h-1.6
			c-0.5,0-0.6,0-0.7,0.4l-0.1,0.8c0,0,0,0,0,0.1c0,0.1,0.1,0.1,0.2,0.1l0.9-0.1h0.1c0.1,0,0.1,0.1,0.1,0.2v7.8
			c0,0.2-0.1,0.2-0.4,0.3l-0.4,0c-0.3,0-0.4,0.1-0.4,0.4l-0.1,0.5c0,0,0,0.1,0,0.1c0,0.1,0,0.1,0.2,0.1h2.9c0.5,0,0.6,0,0.7-0.4
			l0.1-0.9c0-0.1,0-0.1-0.1-0.1l-0.9,0.1c0,0-0.1,0-0.1,0c-0.1,0-0.1,0-0.1-0.1v-5.6L130.7,346.7z M140.7,336
			c-3.2,0-5.5,2.2-5.5,5.5c0,4.7,2.7,5.5,5,5.5c3.2,0,5.5-2.1,5.5-5.5C145.7,336.8,143.1,336,140.7,336z M142,345.4
			c-0.5,0.2-0.9,0.3-1.3,0.3c-1.3,0-2.8-1.2-2.8-4.2c0-2,0.4-3.2,1.1-3.9c0.4-0.2,0.9-0.3,1.3-0.3c1.4,0,2.8,1.1,2.8,4.2
			C143.1,343.5,142.7,344.7,142,345.4z M158.1,337.5c0.8,0,1.6,0.1,2.3,0.2c0.1,0,0.2,0,0.3,0c0.1,0,0.2,0,0.2-0.2l0.2-0.9
			c0,0,0-0.1,0-0.1c0-0.1-0.1-0.2-0.2-0.2c-0.3-0.1-1.6-0.3-3.2-0.3c-3.7,0-5.9,1.3-5.9,5.6c0,5,3.5,5.5,5.5,5.5
			c1.5,0,3-0.3,3.7-0.5c0.2-0.1,0.2-0.1,0.2-0.3v-4.8c0-0.2,0-0.2-0.2-0.2h-2.5c-0.5,0-0.6,0-0.7,0.4l-0.1,0.8c0,0,0,0,0,0.1
			c0,0.1,0.1,0.1,0.2,0.1l0.8-0.1c0.2,0,0.2,0,0.2,0.2v2.5c0,0.2,0,0.2-0.2,0.2c-0.2,0.1-0.9,0.1-1.3,0.1c-0.7,0-2.9-0.1-2.9-4
			c0-1.4,0.3-3,1.2-3.8C156.3,337.7,156.7,337.5,158.1,337.5z M174,341.5c0-4.8-2.7-5.5-5-5.5c-3.2,0-5.5,2.2-5.5,5.5
			c0,4.7,2.7,5.5,5,5.5C171.7,347.1,174,344.9,174,341.5z M166.1,341.5c0-2,0.4-3.2,1.1-3.9c0.4-0.2,0.9-0.3,1.3-0.3
			c1.4,0,2.8,1.1,2.8,4.2c0,1.9-0.4,3.2-1.1,3.9c-0.5,0.2-0.9,0.3-1.3,0.3C167.5,345.8,166.1,344.6,166.1,341.5z M175.5,336.5
			l-0.1,0.9c0,0,0,0,0,0.1c0,0.1,0.1,0.1,0.2,0.1l0.8-0.1h0.1c0.1,0,0.1,0,0.1,0.1v7.9c0,0.1-0.1,0.2-0.4,0.2l-0.4,0
			c-0.3,0.1-0.4,0.1-0.4,0.4l-0.1,0.5c0,0,0,0.1,0,0.1c0,0.1,0,0.1,0.2,0.1c1.7,0,3.3,0.1,4.9,0.1c3.4,0,5.8-1.8,5.8-5.6
			c0-4.6-2.8-5.4-5.4-5.4c-1.3,0-3.6,0.1-4.5,0.1C175.7,336.1,175.5,336.3,175.5,336.5z M178.9,337.7c0-0.2,0.1-0.3,0.4-0.3l1.2-0.1
			c1.6,0,3,1.1,3,4c0,2-0.4,3.3-1.2,4.1c-0.7,0.4-1.4,0.4-2,0.4c-1.3,0-1.3-0.2-1.3-0.4V337.7z M201,343.7c0-1.7-1.1-2.5-2.4-2.6
			c1.2-0.4,1.8-1.3,1.8-2.5c0-2-1.9-2.4-4.2-2.4h-3.9c-0.5,0-0.6,0-0.7,0.4l-0.1,0.8c0,0,0,0,0,0.1c0,0.1,0.1,0.1,0.1,0.1l0.8-0.1
			h0.1c0.1,0,0.1,0,0.1,0.1v7.9c0,0.1-0.1,0.2-0.4,0.2l-0.4,0c-0.3,0.1-0.3,0.1-0.4,0.4l-0.1,0.5c0,0,0,0.1,0,0.1
			c0,0.1,0,0.1,0.2,0.1c3.6,0.1,4.2,0.1,4.8,0.1C198.8,347,201,346.2,201,343.7z M195,337.5c0-0.2,0-0.3,0.3-0.3h1.1
			c1.1,0,1.7,0.6,1.7,1.5c0,0.8-0.1,1.3-0.4,1.6c-0.4,0.2-0.7,0.2-1.2,0.2H195V337.5z M195,345.5v-3.8h1.7c1,0,1.7,0.8,1.7,1.9
			c0,0.8-0.2,1.6-0.7,1.9c-0.4,0.2-0.7,0.2-1.3,0.2l-1.3,0C195,345.7,195,345.7,195,345.5z M209.6,345.6c-0.4,0.1-0.8,0.2-1.2,0.2
			c-1.2,0-2.5-0.7-2.5-2.8v-5.5c0-0.1,0.1-0.2,0.4-0.3l0.4,0c0.4,0,0.4-0.1,0.4-0.4l0.1-0.4c0,0,0,0,0-0.1c0-0.1-0.1-0.1-0.2-0.1
			h-4.2c-0.5,0-0.6,0-0.7,0.4l-0.1,0.8c0,0,0,0.1,0,0.1c0,0.1,0.1,0.1,0.2,0.1l0.9-0.1h0.1c0.1,0,0.1,0.1,0.1,0.2v5.2h0
			c0,3.6,2.5,4.1,4.7,4.1c2.5,0,4.1-1.5,4.1-3.8v-5.8c0-0.1,0.1-0.2,0.4-0.3l0.4,0c0.3,0,0.4-0.1,0.4-0.4l0.1-0.4c0,0,0,0,0-0.1
			c0-0.1-0.1-0.1-0.2-0.1h-2.9c-0.5,0-0.6,0-0.7,0.4l-0.1,0.8c0,0,0,0.1,0,0.1c0,0.1,0.1,0.1,0.2,0.1l0.9-0.1h0.1
			c0.1,0,0.1,0,0.1,0.1v5.7C210.8,344.4,210.2,345.2,209.6,345.6z M220.5,337.4h1.5c0.1,0,0.1,0,0.1,0.1l0.2,1
			c0,0.1,0.1,0.2,0.1,0.2c0,0,0,0,0.1,0l1.2-0.1c0.1,0,0.2,0,0.2-0.2c0-0.1,0-0.1,0-0.3l-0.4-1.7c0-0.2-0.3-0.3-0.5-0.3H215
			c-0.2,0-0.4,0.1-0.5,0.3l-0.3,1.7c0,0.1,0,0.2,0,0.3c0,0.1,0.1,0.2,0.2,0.2l1.3,0.1c0.1,0,0.1,0,0.2-0.2l0.2-1
			c0-0.1,0-0.1,0.1-0.1h1.6c0.1,0,0.1,0.1,0.2,0.2v8c0,0.2-0.1,0.2-0.4,0.3l-0.4,0c-0.4,0-0.4,0.1-0.4,0.4l-0.1,0.4c0,0,0,0.1,0,0.1
			c0,0.1,0,0.1,0.2,0.1h3.9c0.5,0,0.6,0,0.7-0.4l0.1-0.9c0-0.1,0-0.1-0.1-0.1l-0.9,0.1c0,0-0.1,0-0.1,0c-0.1,0-0.1-0.1-0.1-0.2v-7.7
			C220.3,337.5,220.3,337.4,220.5,337.4z M240.1,346.9c0.3,0,0.4-0.1,0.4-0.3l0.2-1c0-0.1-0.1-0.1-0.2-0.1l-0.7,0.1
			c-0.3,0-0.4-0.1-0.5-0.4l-3.3-8.5c-0.1-0.4-0.2-0.4-0.5-0.4h-2.7c-0.5,0-0.6,0-0.7,0.4l-0.1,0.8c0,0,0,0,0,0.1
			c0,0.1,0.1,0.1,0.2,0.1l0.8-0.1h0.1c0.1,0,0.1,0,0.1,0.1c0,0,0,0.1,0,0.1l-0.1,0.2h0l-2.7,7.2c-0.2,0.5-0.3,0.6-0.6,0.6l-0.6,0.1
			c-0.1,0-0.2,0-0.3,0.3l-0.1,0.5c0,0.1,0,0.1,0,0.1c0,0.1,0.1,0.2,0.4,0.2h3.3c0.2,0,0.4,0,0.5-0.3l0.1-1c0-0.1-0.1-0.1-0.2-0.1
			l-0.7,0.1c0,0-0.1,0-0.1,0c-0.2,0-0.3-0.1-0.3-0.2c0-0.1,0-0.2,0.1-0.4l0.5-1.4h3.7l0.7,1.8c0,0.1,0,0.1,0,0.2
			c0,0.1-0.1,0.1-0.3,0.2l-0.6,0.1c-0.1,0-0.2,0.1-0.3,0.2l-0.1,0.4c0,0.1,0,0.2,0,0.3c0,0.1,0.1,0.2,0.3,0.2H240.1z M232.8,342.3
			l1.3-3.8l1.5,3.8H232.8z M242.5,345.9l-0.4,0c-0.3,0.1-0.3,0.1-0.4,0.4l-0.1,0.4c0,0,0,0.1,0,0.1c0,0.1,0,0.1,0.2,0.1h7.9
			c0.2,0,0.4-0.1,0.5-0.3l0.4-2.2c0-0.1,0-0.2,0-0.3c0-0.1-0.1-0.2-0.2-0.2l-1.3-0.1c-0.1,0-0.1,0-0.1,0.2l-0.3,1.3
			c0,0.1,0,0.1-0.1,0.1l-3.1,0.2c-0.1,0-0.2-0.1-0.2-0.2v-8c0-0.1,0.1-0.2,0.4-0.3l0.4,0c0.3,0,0.4-0.1,0.4-0.4l0.1-0.5
			c0-0.1,0-0.1-0.2-0.1h-3.9c-0.5,0-0.6,0-0.7,0.4l-0.1,0.8c0,0,0,0,0,0.1c0,0.1,0.1,0.1,0.2,0.1l0.9-0.1h0.1c0.1,0,0.1,0.1,0.1,0.2
			v7.9C242.9,345.8,242.8,345.8,242.5,345.9z M252.4,345.9l-0.4,0c-0.3,0.1-0.3,0.1-0.4,0.4l-0.1,0.4c0,0,0,0.1,0,0.1
			c0,0.1,0,0.1,0.2,0.1h7.9c0.2,0,0.4-0.1,0.5-0.3l0.4-2.2c0-0.1,0-0.2,0-0.3c0-0.1-0.1-0.2-0.2-0.2l-1.3-0.1c-0.1,0-0.1,0-0.1,0.2
			l-0.3,1.3c0,0.1,0,0.1-0.1,0.1l-3.1,0.2c-0.1,0-0.2-0.1-0.2-0.2v-8c0-0.1,0.1-0.2,0.4-0.3l0.4,0c0.3,0,0.4-0.1,0.4-0.4l0.1-0.5
			c0-0.1,0-0.1-0.2-0.1h-3.9c-0.5,0-0.6,0-0.7,0.4l-0.1,0.8c0,0,0,0,0,0.1c0,0.1,0.1,0.1,0.2,0.1l0.9-0.1h0.1c0.1,0,0.1,0.1,0.1,0.2
			v7.9C252.8,345.8,252.7,345.8,252.4,345.9z M265.3,345.5l-0.7,0.1c0,0-0.1,0-0.1,0c-0.2,0-0.3-0.1-0.3-0.2c0-0.1,0-0.2,0.1-0.4
			l0.5-1.4h3.7l0.7,1.8c0,0.1,0,0.1,0,0.2c0,0.1-0.1,0.1-0.3,0.2l-0.6,0.1c-0.1,0-0.2,0.1-0.3,0.2l-0.1,0.4c0,0.1,0,0.2,0,0.3
			c0,0.1,0.1,0.2,0.3,0.2h4.3c0.3,0,0.4-0.1,0.4-0.3l0.2-1c0-0.1-0.1-0.1-0.2-0.1l-0.7,0.1c-0.3,0-0.4-0.1-0.5-0.4l-3.3-8.5
			c-0.1-0.4-0.2-0.4-0.5-0.4h-2.7c-0.5,0-0.6,0-0.7,0.4l-0.1,0.8c0,0,0,0,0,0.1c0,0.1,0.1,0.1,0.2,0.1l0.8-0.1h0.1
			c0.1,0,0.1,0,0.1,0.1c0,0,0,0.1,0,0.1l-0.1,0.2h0l-2.7,7.2c-0.2,0.5-0.3,0.6-0.6,0.6l-0.6,0.1c-0.1,0-0.2,0-0.3,0.3l-0.1,0.5
			c0,0.1,0,0.1,0,0.1c0,0.1,0.1,0.2,0.4,0.2h3.3c0.2,0,0.4,0,0.5-0.3l0.1-1C265.5,345.5,265.4,345.5,265.3,345.5z M266.6,338.5
			l1.5,3.8h-2.8L266.6,338.5z M274.9,345.9l-0.4,0c-0.4,0-0.4,0.1-0.4,0.4l-0.1,0.4c0,0,0,0.1,0,0.1c0,0.1,0,0.1,0.2,0.1h3.9
			c0.5,0,0.6,0,0.7-0.4l0.1-0.9c0-0.1,0-0.1-0.1-0.1l-0.9,0.1c0,0-0.1,0-0.1,0c-0.1,0-0.1-0.1-0.1-0.2v-3.2l3.9,0.2v3.2
			c0,0.2-0.1,0.2-0.4,0.3l-0.4,0c-0.4,0-0.4,0.1-0.4,0.4l-0.1,0.4c0,0,0,0.1,0,0.1c0,0.1,0,0.1,0.2,0.1h3.9c0.5,0,0.6,0,0.7-0.4
			l0.1-0.9c0-0.1,0-0.1-0.1-0.1l-0.9,0.1c0,0-0.1,0-0.1,0c-0.1,0-0.1-0.1-0.1-0.2v-7.9c0-0.1,0.1-0.1,0.4-0.2l0.3,0
			c0.3,0,0.4-0.1,0.4-0.4l0.1-0.5c0-0.1,0-0.1-0.2-0.1h-3.7c-0.5,0-0.6,0-0.7,0.4l-0.1,0.8c0,0,0,0,0,0.1c0,0.1,0.1,0.1,0.1,0.1
			l0.8-0.1h0.1c0.1,0,0.1,0,0.1,0.1v3l-3.9,0.1v-3.4c0-0.1,0.1-0.1,0.4-0.2l0.3,0c0.4,0,0.4-0.1,0.4-0.4l0-0.4c0,0,0-0.1,0-0.1
			c0-0.1,0-0.1-0.2-0.1H275c-0.5,0-0.6,0-0.7,0.4l-0.1,0.8c0,0,0,0,0,0.1c0,0.1,0.1,0.1,0.1,0.1l0.8-0.1h0.1c0.1,0,0.1,0.1,0.1,0.2
			v7.9C275.3,345.8,275.2,345.8,274.9,345.9z M27.4,309.2c-0.1,0-0.2,0.1-0.4,0.1l-5,1c-0.8,0.2-1.4,0.3-2,0.3
			c-1.9,0-2.4-0.8-2.4-2.9v-12h5.5c2.7,0,3.5-0.2,3.8-2.4l0.7-5.9c0-0.6-0.3-0.7-0.9-0.7l-9.1,1.1v-11.5c0-1-0.4-1.3-0.9-1.3
			c-0.7,0-0.9,0-2.4,1.3l-7.5,5.5c-1.1,1-1.7,1.6-1.7,3v4.6l-2.7,0.3c-1.9,0.5-1.9,0.6-2.2,2.7l-0.3,2.3C0,294.9,0,295,0,295.2
			c0,0.4,0.3,0.6,0.9,0.6h4.3v14.5c0,5.7,0,9.7,6.4,9.7c3.8,0,10.1-1.4,13.9-2.5c1.1-0.3,1.4-0.4,1.6-1.4l1-6.1
			C28.1,309.5,27.9,309.2,27.4,309.2z M51.6,316.8l0.7-5.5c0-0.5-0.2-0.7-0.7-0.7l-3,0.3c-0.1,0-0.2,0.1-0.4,0.1
			c-0.6,0-0.6-0.4-0.6-1.2v-11.2c1.6-1.2,2.7-2,4.4-2c3.2,0,5,2.1,6,2.1c0.4,0,0.9-0.2,1.1-1.2l1.3-7.8c0.1-0.5,0.1-0.9,0.1-1.2
			c0-1.3-1.9-1.7-4.4-1.7c-3.2,0-6.2,1.5-8.5,4.4v-3c0-0.8,0-1.4-0.8-1.4c-0.2,0-0.9,0.1-2,0.3L34,290.3c-1.7,0.5-2.4,0.8-2.7,2.3
			l-0.8,3.2c-0.1,0.1-0.1,0.3-0.1,0.3c0,0.4,0.3,0.6,0.7,0.6l2.7,0.7c1.3,0.3,1.4,0.4,1.4,2.1v12c0,0.8-0.6,1-1.9,1.3l-1.1,0.3
			c-1.9,0.5-1.9,0.6-2.2,2.7l-0.3,2.3c-0.1,0.2-0.1,0.3-0.1,0.5c0,0.4,0.3,0.6,0.9,0.6h17.2C50.7,319.2,51.3,319,51.6,316.8z
			 M100.5,317.4l1-6.1c0-0.5-0.2-0.8-0.7-0.8c-0.1,0-0.2,0.1-0.4,0.1l-1.2,0.1c-0.4,0.1-0.7,0.1-1,0.1c-0.7,0-0.9-0.3-0.9-1.1v-14.6
			c0-4.5,0-7.6-6.4-7.6c-2.3,0-5.4,0.6-7.7,1.1c-1.1,0.2-1.4,0.4-1.6,1.4l-1,5.8c0,0.1-0.1,0.2-0.1,0.3c0,0.5,0.2,0.8,0.7,0.8
			c0.1,0,0.2,0,0.4-0.1l1.2-0.1c0.4-0.1,0.7-0.1,1-0.1c0.7,0,0.9,0.3,0.9,1v12.5c-1.3,0.8-2.5,1.3-3.9,1.3c-1.6,0-2.7-0.6-2.7-2.6
			v-13.7c0-4.5,0-7.6-6.4-7.6c-2.3,0-5.4,0.6-7.7,1.1c-1.1,0.2-1.4,0.4-1.6,1.4l-1,5.8c0,0.1-0.1,0.2-0.1,0.3c0,0.5,0.2,0.8,0.7,0.8
			c0.1,0,0.2,0,0.4-0.1l1.2-0.1c0.4-0.1,0.7-0.1,1-0.1c0.7,0,0.9,0.3,0.9,1v11.2c0,8.4,4.5,11.1,9.8,11.1c3.5,0,6.8-1.6,9.2-4.6
			c0.3,2.8,1.5,4.6,6.3,4.6c2.3,0,5.4-0.6,7.7-1.1C100,318.6,100.3,318.4,100.5,317.4z M103.7,303.7c0,14.2,8.7,16.2,16.1,16.2
			c8.8,0,13.2-2.8,14.8-3.9c0.6-0.4,0.7-0.8,1-2.1l0.7-3.8c0.1-0.2,0.1-0.4,0.1-0.6c0-0.8-0.4-1.1-0.9-1.1c-0.4,0-0.8,0.1-1.2,0.3
			c-3.9,2-6,2.6-9.5,2.6c-3.7,0-6-0.6-7.2-2.5l4.8-0.8c9.2-1.6,13.4-2.2,13.4-9.5c0-6.9-3.8-11.6-14.6-11.6
			C109.1,286.7,103.7,292.5,103.7,303.7z M117.5,294.6c1.5-0.5,2.2-0.7,3.9-0.7c2.2,0,3.4,1,3.4,3.2c0,2.4-0.6,3-4.3,3.7l-4.4,0.8
			C116.2,300.1,116.3,297,117.5,294.6z M173.9,311c-0.6,0-0.6-0.4-0.6-1.2v-21.6c0-0.8,0-1.4-0.8-1.4c-0.2,0-0.9,0.1-2,0.3
			l-10.9,3.2c-1.7,0.5-2.4,0.8-2.7,2.3l-0.8,3.2c-0.1,0.1-0.1,0.3-0.1,0.3c0,0.4,0.3,0.6,0.7,0.6l2.7,0.7c1.3,0.3,1.4,0.4,1.4,2.1
			v12c0,0.8-0.6,1-1.9,1.3l-1.1,0.3c-1.9,0.5-1.9,0.6-2.2,2.7l-0.3,2.3c-0.1,0.2-0.1,0.3-0.1,0.5c0,0.4,0.3,0.6,0.9,0.6h17.2
			c2.9,0,3.5-0.2,3.8-2.4l0.7-5.5c0-0.5-0.2-0.7-0.7-0.7l-3,0.3C174.2,310.9,174.1,311,173.9,311z M165.9,285.4
			c0.4,0,0.8-0.3,1.4-0.7l6.2-5c0.6-0.4,0.9-0.7,0.9-1c0-0.3-0.2-0.6-0.4-1.2l-5-7.3c-0.6-1-0.9-1.4-1.3-1.4c-0.3,0-0.7,0.2-1.4,0.7
			l-6.2,4.7c-1,0.8-1.6,1.2-1.6,1.9c0,0.4,0.2,0.8,0.7,1.4l5.3,6.9C165,285.1,165.5,285.4,165.9,285.4z M181.6,316.9
			c0.1,1,0.4,1.3,1.3,1.7c1.3,0.5,4.9,1.3,11.1,1.3c7.4,0,14.5-1.2,14.5-10.6c0-7.4-4.4-10.6-8.8-11.3c-4.2-0.7-8,0.3-8-1.8
			c0-0.6,0.2-0.9,0.4-1c1.4-0.1,3.3-0.1,5.9-0.1c3.2,0,5.8,0.3,6.8,0.3c0.7,0,0.9-0.3,1.1-1.4l0.7-4.6c0.1-0.6,0.1-1,0.1-1.2
			c0-0.6-0.3-0.8-1.4-1c-2.5-0.2-4.9-0.3-9.3-0.3c-8.1,0-14.7,0.3-14.7,10.5c0,16.2,16.9,9,16.9,13.3c0,0.4,0,0.5-0.2,1
			c-0.7,0.1-2.4,0.3-4.6,0.3c-2.3,0-4.9-0.3-8.5-1.2c-1.4-0.3-2.4-0.6-3-0.6c-0.6,0-0.9,0.3-0.9,1c0,0.1,0,0.3,0.1,0.6L181.6,316.9z
			 M231.3,316.8l0.7-5.5c0-0.5-0.2-0.7-0.7-0.7l-3,0.3c-0.1,0-0.2,0.1-0.4,0.1c-0.6,0-0.6-0.4-0.6-1.2v-40.6c0-0.8,0-1.4-0.8-1.4
			c-0.7,0-6.4,1.3-14.1,3.9c-0.7,0.2-1.3,1-1.6,2l-0.8,3.3c-0.1,0.1-0.1,0.2-0.1,0.3c0,0.4,0.3,0.5,0.8,0.6l2.7,0.6
			c1.3,0.3,1.4,0.6,1.4,2.1v30.9c0,0.8-0.6,1-1.9,1.3l-1.1,0.3c-1.9,0.5-1.9,0.6-2.2,2.7l-0.3,2.3c-0.1,0.2-0.1,0.3-0.1,0.5
			c0,0.4,0.3,0.6,0.9,0.6h17.2C230.3,319.2,231,319,231.3,316.8z M237.5,288.8c-1.2,0.4-1.7,0.6-1.7,1.5c0,0.4,0.1,0.9,0.2,1.6
			l1,4.5c0.3,1.3,0.4,2,1.4,2c1.1,0,3.4-1.1,8.3-3.7c0.9-0.1,1.9-0.2,2.8-0.2c2.5,0,3.1,1.9,3.2,6.1c-2.3-0.8-4.5-1-6.5-1
			c-6.1,0-11.6,2.3-11.6,9.9c0,6.3,2.7,10.3,8.5,10.3c4.5,0,7.2-1.2,9.8-4.6c0.3,2.8,1.5,4.6,6.3,4.6c2.3,0,5.4-0.6,7.7-1.1
			c1.1-0.2,1.4-0.4,1.6-1.4l1-5.8v-0.3c0-0.4-0.2-0.6-0.7-0.6l-2.7,0.3h-0.2c-0.4,0-0.6-0.2-0.6-1.1v-8.1c0-12.8-4.5-15-14.1-15
			C245.2,286.7,240.5,287.8,237.5,288.8z M252.7,311.2c-0.9,0.5-2.3,1-4,1c-1.7,0-2.3-1.1-2.3-3.5c0-1.5,0.2-2.5,0.6-3.1
			c1.4-0.3,2-0.3,2.4-0.3c1.5,0,2.7,0.4,3.4,0.8V311.2z M328.9,310.6c-0.1,0-0.2,0.1-0.4,0.1l-1.2,0.1c-0.4,0.1-0.8,0.1-1.1,0.1
			c-0.6,0-0.8-0.3-0.9-0.8v-12.3c0-8.4-4.3-11.1-9.4-11.1c-3.7,0-7.2,1.9-9.5,5.6c-1.5-4.1-4.8-5.6-8.6-5.6c-3.4,0-6.6,1.6-9,4.6
			v-3.2c0-0.8,0-1.4-0.8-1.4c-0.2,0-0.9,0.1-2,0.3l-10.9,3.2c-1.7,0.5-2.4,0.8-2.7,2.3l-0.8,3.2c-0.1,0.1-0.1,0.3-0.1,0.3
			c0,0.4,0.3,0.6,0.7,0.6l2.7,0.7c1.3,0.3,1.4,0.4,1.4,2.1v12c0,0.8-0.6,1-1.9,1.3l-1.1,0.3c-1.9,0.5-1.9,0.6-2.2,2.7l-0.3,2.3
			c-0.1,0.2-0.1,0.3-0.1,0.5c0,0.4,0.3,0.6,0.9,0.6h17.2c2.9,0,3.5-0.2,3.8-2.4l0.7-5.5c0-0.5-0.2-0.7-0.7-0.7l-3,0.3
			c-0.1,0-0.2,0.1-0.4,0.1c-0.6,0-0.6-0.4-0.6-1.2v-13.3c1.2-0.8,2.5-1.3,3.7-1.3c1.4,0,2.3,0.6,2.3,2.6v14.5c0,4.5,0,7.6,6.4,7.6
			c2.3,0,5.4-0.6,7.7-1.1c1.1-0.2,1.4-0.4,1.6-1.4l1-6.1c0-0.5-0.2-0.8-0.7-0.8c-0.1,0-0.2,0.1-0.4,0.1l-1.2,0.1
			c-0.4,0.1-0.7,0.1-1,0.1c-0.7,0-0.9-0.3-0.9-1.1v-13.3c1.1-0.8,2.1-1.3,3.3-1.3c1.4,0,2.3,0.6,2.3,2.6v14.5c0,4.5,0,7.6,6.4,7.6
			c2.3,0,5.4-0.6,7.7-1.1c1.1-0.2,1.4-0.4,1.6-1.4l1-6.1C329.6,310.8,329.4,310.6,328.9,310.6z"/>
	</g>
</g>
</svg>
