<svg id="Crop_Marks" data-name="Crop Marks" xmlns="http://www.w3.org/2000/svg" viewBox="0 0 139.88 50"><defs><style>.cls-1{fill:#fff;}</style></defs><title>logo6</title><path class="cls-1" d="M19.1,30.45a11,11,0,0,0,3.21,3.78,7.5,7.5,0,0,0,4.49,1.39,8.17,8.17,0,0,0,4-1.17,8.68,8.68,0,0,0,3.41-4l0.08-.16-1.16-.75-0.1.21a8.12,8.12,0,0,1-2.82,3.44,6.29,6.29,0,0,1-3.42,1.11A6.22,6.22,0,0,1,22.93,33a9.85,9.85,0,0,1-2.79-3.5,19.87,19.87,0,0,1-1.68-5.23,35.26,35.26,0,0,1-.56-6.46,35.65,35.65,0,0,1,.56-6.48A20.06,20.06,0,0,1,20.12,6.1a9.69,9.69,0,0,1,2.77-3.47,6.3,6.3,0,0,1,7-.37,7.23,7.23,0,0,1,2.66,3l0.1,0.2,1.16-.74-0.08-.16A7.78,7.78,0,0,0,30.58,1a8.06,8.06,0,0,0-3.79-1A7.59,7.59,0,0,0,22.3,1.37,10.77,10.77,0,0,0,19.1,5.13a20.54,20.54,0,0,0-1.94,5.65,35.56,35.56,0,0,0-.66,7,35.2,35.2,0,0,0,.66,7A20.54,20.54,0,0,0,19.1,30.45Z"/><path class="cls-1" d="M38.56,12.92l0,1.59q0,0.83,0,1.62t0,1.35V34.86h1.4V22.76A22.59,22.59,0,0,1,40.39,19a16.35,16.35,0,0,1,.92-3.36,7.12,7.12,0,0,1,1.52-2.41,2.82,2.82,0,0,1,2.07-.89h0.27a0.42,0.42,0,0,1,.18,0l0.3,0.15V11.09l-0.15,0A2.49,2.49,0,0,0,44.9,11a4.23,4.23,0,0,0-3.11,1.47A8.26,8.26,0,0,0,40,16.12V16.05q0-.76,0-1.6l0-1.57c0-.5,0-0.91-0.07-1.23l0-.19H38.47l0,0.22C38.52,12,38.55,12.42,38.56,12.92Z"/><path class="cls-1" d="M49.31,32.16a7.28,7.28,0,0,0,2.24,2.54,5.43,5.43,0,0,0,3.13.92,5,5,0,0,0,3.7-1.44,8.62,8.62,0,0,0,2.06-3.27l0.06-.16-1.08-.64-0.09.23a8.09,8.09,0,0,1-1.74,2.79,3.88,3.88,0,0,1-2.91,1.13,4.09,4.09,0,0,1-2.57-.81,6.44,6.44,0,0,1-1.8-2.31,12.81,12.81,0,0,1-1.07-3.61,29.46,29.46,0,0,1-.34-4.43H61V21.67a25.94,25.94,0,0,0-.32-4.13,12,12,0,0,0-1.08-3.49,6.74,6.74,0,0,0-2-2.43,5.48,5.48,0,0,0-6.15,0,7.55,7.55,0,0,0-2.19,2.64,14.78,14.78,0,0,0-1.33,4,25.14,25.14,0,0,0-.46,4.92A25.93,25.93,0,0,0,48,28.25,13.59,13.59,0,0,0,49.31,32.16ZM49.2,18.93a13.56,13.56,0,0,1,1-3.3A8.53,8.53,0,0,1,51.95,13a3.55,3.55,0,0,1,2.59-1,3.75,3.75,0,0,1,2.26.7,5.32,5.32,0,0,1,1.61,2,12.15,12.15,0,0,1,1,3.15,22.82,22.82,0,0,1,.34,3.92H48.91A19.49,19.49,0,0,1,49.2,18.93Z"/><path class="cls-1" d="M72.83,20.89a14.21,14.21,0,0,0-2.57.27,7.09,7.09,0,0,0-2.7,1.13,6.8,6.8,0,0,0-2.1,2.38,8.29,8.29,0,0,0-.84,4,9.26,9.26,0,0,0,.44,3,6.45,6.45,0,0,0,1.19,2.14,4.64,4.64,0,0,0,3.55,1.66,4.88,4.88,0,0,0,3.59-1.54,8.12,8.12,0,0,0,1.84-3.51l0,1.49q0,0.79.07,1.53t0.09,1.22l0,0.18h1.36l0-.22c-0.06-.64-0.12-1.45-0.18-2.42s-0.09-1.91-.09-2.8V19.33c0-2.92-.52-5.1-1.53-6.5a5.08,5.08,0,0,0-4.33-2.13,5.73,5.73,0,0,0-2.86.84,6.25,6.25,0,0,0-2.29,2.26l-0.08.14,1,1,0.13-.22a6.2,6.2,0,0,1,1.82-1.91,4.1,4.1,0,0,1,2.31-.7,3.74,3.74,0,0,1,3.23,1.7c0.82,1.15,1.23,3,1.23,5.52v1.6H72.83Zm2.28,3.39a24.94,24.94,0,0,1-.25,3.42A12.52,12.52,0,0,1,74,30.91a6.55,6.55,0,0,1-1.62,2.33,3.62,3.62,0,0,1-2.49.88,3.37,3.37,0,0,1-1.32-.29,3.48,3.48,0,0,1-1.24-.92,5.11,5.11,0,0,1-.93-1.67A7.7,7.7,0,0,1,66,28.66a7.2,7.2,0,0,1,.66-3.33,5.19,5.19,0,0,1,1.68-1.92,6,6,0,0,1,2.28-.92,13.75,13.75,0,0,1,2.48-.23h2v2Z"/><path class="cls-1" d="M83.26,29.61a18.49,18.49,0,0,0,.12,2.14,5.19,5.19,0,0,0,.5,1.76,3.06,3.06,0,0,0,1,1.2,3.17,3.17,0,0,0,1.76.44,5,5,0,0,0,2.17-.5L89,34.58l-0.35-1.31-0.24.18a2,2,0,0,1-.76.34c-1.23.27-2.08,0-2.49-.83a8,8,0,0,1-.5-3.3V12.83h4V11.47h-4V4.71H83.26v6.76H80.32v1.36h2.94V29.61Z"/><rect class="cls-1" x="92.95" y="11.47" width="1.41" height="23.39"/><polygon class="cls-1" points="104.67 34.86 106.31 34.86 111.91 11.72 111.97 11.47 110.55 11.47 105.51 32.88 100.32 11.63 100.28 11.47 98.82 11.47 104.63 34.71 104.67 34.86"/><path class="cls-1" d="M19.05,44.72a45.21,45.21,0,0,1-16.25.41A1.39,1.39,0,0,1,1.4,43.74V18.05h9.91V16.69H1.4V2.3H12V0.94H0V44.75a1.8,1.8,0,0,0,1.8,1.8s8.55,1.82,16.6-.17C18.76,46.3,19.4,44.64,19.05,44.72Z"/><path class="cls-1" d="M114.05,22.93a0.78,0.78,0,0,0,.51.1l0.19-.05a0.55,0.55,0,0,0,.34-0.62,9.84,9.84,0,0,1,8.43-9.49,12.7,12.7,0,0,1,1.5-.1h0.11a0.55,0.55,0,0,0,.53-0.54,0.54,0.54,0,0,0-.41-0.6h0a10.33,10.33,0,0,0-1.87.11c-4.19.57-9.54,4.65-10.41,7.92A2.91,2.91,0,0,0,114.05,22.93Z"/><path class="cls-1" d="M134.59,17.11l0.26,0.27a5,5,0,0,1,.92,1.41,4,4,0,0,1,.28,1,0.8,0.8,0,0,0,.2.51,0.48,0.48,0,0,0,.35.12h0a0.47,0.47,0,0,0,.33-0.24,1.41,1.41,0,0,0,.1-0.89,19.2,19.2,0,0,0-.82-3c-0.59-1.56-1.31-2.41-2.11-2.52a0.89,0.89,0,0,0-.82.27,1,1,0,0,0-.19,1A4.89,4.89,0,0,0,134.59,17.11Z"/><path class="cls-1" d="M123.21,36.06l0.14,0a1.44,1.44,0,0,0,1.34-1.53,0.91,0.91,0,0,0-1.13-.71,4.26,4.26,0,0,1-2.16-.22,9.55,9.55,0,0,1-4-2.94l-0.06-.07a0.78,0.78,0,0,0-.78-0.33,0.54,0.54,0,0,0-.34.28,0.5,0.5,0,0,0,0,.44C116.9,32.33,121.18,36.27,123.21,36.06Z"/><path class="cls-1" d="M139.83,24.26A2.18,2.18,0,0,0,137,22.7a0.78,0.78,0,0,1-.54-0.33,29.92,29.92,0,0,1-3.05-3.44,34.35,34.35,0,0,1-4-7.28,0.36,0.36,0,0,1,0-.32,1.14,1.14,0,0,0-.16-1.69,1.14,1.14,0,0,0-.8-0.22h0a1.15,1.15,0,0,0-.43,2.12,0.6,0.6,0,0,1,.24.4,38.75,38.75,0,0,1-.07,10,7.6,7.6,0,0,1-1.93,3.73l-0.13.16a1,1,0,0,1-.56.44,0.81,0.81,0,0,1-.52,0l-1.09-.51a24.34,24.34,0,0,1-2.64-1.33,10.18,10.18,0,0,0,2.33-3.07,0.36,0.36,0,0,1,.26-0.2,1.12,1.12,0,0,0,.54-0.39,1.14,1.14,0,1,0-1.69.15,0.14,0.14,0,0,1,0,.17,9.38,9.38,0,0,1-2.2,2.77,2.58,2.58,0,0,1-.31-0.32,5.2,5.2,0,0,1-.69-4.52,0.28,0.28,0,0,1,.21-0.16l0.1,0a1.08,1.08,0,0,0,.34-0.29,1.15,1.15,0,0,0-1-1.83h0a1.14,1.14,0,0,0-.63,2l0.1,0.09a0.19,0.19,0,0,1,0,.19,5.81,5.81,0,0,0,.89,5.18,3.22,3.22,0,0,0,.3.32,25.42,25.42,0,0,1-2.63,1.58c-0.09.06-.16,0-0.28-0.1a1.83,1.83,0,0,0-.23-0.21,2.19,2.19,0,0,0-2.63,3.5A2.18,2.18,0,0,0,117.48,27a0.14,0.14,0,0,1,0-.2,25.11,25.11,0,0,0,3-1.85,21.69,21.69,0,0,0,3,1.57c0.34,0.16.77,0.35,1.11,0.53a1.12,1.12,0,0,0,.39,1.24,1.14,1.14,0,0,0,.8.22h0a1.14,1.14,0,0,0,.75-0.45,1.12,1.12,0,0,0,0-1.34c0-.06-0.07-0.09.22-0.41a8.3,8.3,0,0,0,2.21-4.24,34.72,34.72,0,0,0,.26-8.16,35.72,35.72,0,0,0,3.27,5.55A30.76,30.76,0,0,0,135.77,23a0.86,0.86,0,0,1,.15.47,2.18,2.18,0,0,0-.29,2,0.88,0.88,0,0,1-.37.93l-1.08.68a40.35,40.35,0,0,0-3.53,2.37,13.7,13.7,0,0,0-3.58,4.11l-0.13.28-0.05.12a0.21,0.21,0,0,1-.06.09l-0.1.05a1.12,1.12,0,0,0-.62.42,1.14,1.14,0,1,0,1.7-.14,0.15,0.15,0,0,1,0-.17,11.83,11.83,0,0,1,3.44-4,39.34,39.34,0,0,1,3.45-2.31c0.54-.34,1.1-0.69,1.58-1a0.72,0.72,0,0,1,.65-0.08A2.18,2.18,0,0,0,139.83,24.26Z"/><path class="cls-1" d="M136.29,29a1.32,1.32,0,0,0-1.26.4c-0.52.89-2.44,3.33-4,3.33a0.42,0.42,0,0,0-.35.26,1.25,1.25,0,0,0,.29,1.11,1.16,1.16,0,0,0,1,.41c1.17-.1,2.41-2,3.4-3.48a6.35,6.35,0,0,0,.42-0.69,108.52,108.52,0,0,1-.1,12.74,2.1,2.1,0,0,1-1.54,2.28,35.38,35.38,0,0,1-4.43,1.06c-9,2-27.72,4.39-51.92-1.69C54,38.77,35.2,41,25.76,43a46,46,0,0,0-5.16,1.33c-0.33.28-.82,1.67-0.46,1.56,0.07,0,4.06-1.1,5.72-1.45,9.19-2,27.83-4.26,51.52,1.69A125.86,125.86,0,0,0,108,50,101,101,0,0,0,131,47.52c1.48-.35,2.66-0.65,3.49-0.92a3.24,3.24,0,0,0,1.91-1.13,2.46,2.46,0,0,0,.4-1.42c0-2.29.35-11.36,0-14.7A0.47,0.47,0,0,0,136.29,29Z"/></svg>